<svg xmlns="http://www.w3.org/2000/svg" viewBox="0 0 70.5 70.5"><defs><style>.cls-1{fill:none;stroke:#000;stroke-miterlimit:10;stroke-width:0.5px;}.cls-2{fill:#fff;}</style></defs><title>lactose free-70px</title><g id="Layer_2" data-name="Layer 2"><g id="LACTOSE"><circle class="cls-1" cx="35.25" cy="35.25" r="35"/><path class="cls-2" d="M28.38,59.46c-.1,0-3.95-1.17-3.95-7,0-6.28,0-21,.76-24.77a25.21,25.21,0,0,1,1.43-4.24c.94-2.38,1.92-4.84,1.82-7.09a4,4,0,0,0-.63-1.71l-.17-.3c-.21-.4-1.17-2.44.61-3.45h14c1.78,1,.82,3,.61,3.45l-.17.3a4,4,0,0,0-.63,1.71c-.1,2.25.88,4.71,1.82,7.09a25.21,25.21,0,0,1,1.43,4.24c.76,3.79.76,18.49.76,24.77,0,5.58-3.62,6.88-4,7Z"/><path d="M42.18,11.15c1.47.89.72,2.58.46,3.08l-.17.3a4.37,4.37,0,0,0-.66,1.82c-.1,2.3.89,4.79,1.84,7.19a26.34,26.34,0,0,1,1.42,4.2c.75,3.77.75,19,.75,24.72,0,5.31-3.28,6.59-3.77,6.75H28.45c-.5-.17-3.77-1.45-3.77-6.75,0-5.73,0-20.95.75-24.72a26.34,26.34,0,0,1,1.42-4.2c.95-2.4,1.94-4.89,1.84-7.19A4.37,4.37,0,0,0,28,14.53l-.17-.3c-.26-.5-1-2.19.46-3.08H42.18m.13-.5H28.19c-1.82,1-1.24,2.93-.77,3.82a4.59,4.59,0,0,1,.77,1.91c.16,3.6-2.58,7.9-3.25,11.26-.76,3.82-.76,18.71-.76,24.82s4.2,7.25,4.2,7.25H42.12s4.2-1.15,4.2-7.25,0-21-.76-24.82c-.67-3.36-3.41-7.66-3.25-11.26a4.59,4.59,0,0,1,.77-1.91c.47-.89,1.05-2.84-.77-3.82Z"/><rect x="3.92" y="34.7" width="64.56" height="1.61" transform="translate(-14.5 36) rotate(-45)"/><path class="cls-2" d="M58.45,12.64l.61.61L14,58.37l-.61-.61L58.45,12.64m0-1.06L12.28,57.76,14,59.43,60.12,13.25l-1.67-1.67Z"/></g></g></svg>