<svg id="Layer_1" data-name="Layer 1" xmlns="http://www.w3.org/2000/svg" viewBox="0 0 741.53 353.59"><defs><style>.cls-1{fill:#fff;}.cls-2{fill:none;stroke:#9ccc66;stroke-width:15.92px;}.cls-3{fill:#9ccc66;}</style></defs><title>lactose-free</title><polygon class="cls-1" points="7.96 161.6 7.96 345.63 733.57 345.63 733.57 161.6 7.96 161.6 7.96 161.6"/><polygon class="cls-2" points="7.96 161.6 7.96 345.63 733.57 345.63 733.57 161.6 7.96 161.6 7.96 161.6"/><path class="cls-3" d="M333.23,432.62h13.91v73.84H333.23Zm6.2,60.43h43.26v13.41H339.43Z" transform="translate(-308.86 -207.53)"/><path class="cls-3" d="M415,432.62h8.83l28.24,73.84h-15L419.41,456l-17.68,50.43h-15Zm-14.68,48.6h38.85v13.41H400.31Z" transform="translate(-308.86 -207.53)"/><path class="cls-3" d="M473.89,507.22l-6-3.22a21.57,21.57,0,0,1-9.14-9.4,32.44,32.44,0,0,1-3.15-14.9V459.43a32.44,32.44,0,0,1,3.15-14.9,21.72,21.72,0,0,1,9.14-9.42,29.82,29.82,0,0,1,14.42-3.25,25.53,25.53,0,0,1,12.45,3,24.49,24.49,0,0,1,9.06,8.71,37.35,37.35,0,0,1,4.95,13.78H494.36a18.67,18.67,0,0,0-2.51-6.24,12,12,0,0,0-4.12-4,10.7,10.7,0,0,0-5.41-1.38,13.07,13.07,0,0,0-6.65,1.6,10.4,10.4,0,0,0-4.19,4.68,17.25,17.25,0,0,0-1.44,7.38V479.7a17.13,17.13,0,0,0,1.44,7.36,10.43,10.43,0,0,0,4.19,4.65,13.07,13.07,0,0,0,6.65,1.6,11.14,11.14,0,0,0,5.49-1.35,11.6,11.6,0,0,0,4.11-3.94,18.17,18.17,0,0,0,2.44-6.29h14.42a38.11,38.11,0,0,1-5,13.78,24.52,24.52,0,0,1-9,8.71,25.36,25.36,0,0,1-12.42,3Z" transform="translate(-308.86 -207.53)"/><path class="cls-3" d="M511.32,432.62h54.13V446H511.32Zm20.11,6.05h13.91v67.79H531.43Z" transform="translate(-308.86 -207.53)"/><path class="cls-3" d="M582.85,503.84a23.45,23.45,0,0,1-9.47-9.54A29.45,29.45,0,0,1,570,480V459.08a29.45,29.45,0,0,1,3.36-14.3,23.45,23.45,0,0,1,9.47-9.54,31.27,31.27,0,0,1,28.28,0,23.45,23.45,0,0,1,9.47,9.54,29.45,29.45,0,0,1,3.35,14.3V480a29.45,29.45,0,0,1-3.35,14.3,23.45,23.45,0,0,1-9.47,9.54,31.27,31.27,0,0,1-28.28,0Zm20.74-12.13a10.89,10.89,0,0,0,4.39-4.55,14.42,14.42,0,0,0,1.55-6.8V458.72a14.42,14.42,0,0,0-1.55-6.8,10.94,10.94,0,0,0-4.39-4.55,14.41,14.41,0,0,0-13.2,0,11,11,0,0,0-4.4,4.55,14.41,14.41,0,0,0-1.54,6.8v21.64a14.41,14.41,0,0,0,1.54,6.8,11,11,0,0,0,4.4,4.55,14.41,14.41,0,0,0,13.2,0Z" transform="translate(-308.86 -207.53)"/><path class="cls-3" d="M654.57,507.22l-5.05-1.07A44.19,44.19,0,0,1,640,503a36.07,36.07,0,0,1-7.95-4.95l6.45-11.48a31.06,31.06,0,0,0,9.85,5.41,35.31,35.31,0,0,0,11.48,1.91q6.79,0,10.56-2.32a7.27,7.27,0,0,0,3.76-6.52V485a6.41,6.41,0,0,0-1.68-4.67,10,10,0,0,0-4.37-2.54,54.45,54.45,0,0,0-6.9-1.48,1,1,0,0,0-.28,0,.72.72,0,0,1-.28-.05l-1.12-.15a68.63,68.63,0,0,1-12.29-2.92A18.1,18.1,0,0,1,639,467q-3.39-4.39-3.4-12.47v-.05a22.54,22.54,0,0,1,3.2-12.24,20.16,20.16,0,0,1,9.29-7.74,36.61,36.61,0,0,1,14.73-2.67,38.09,38.09,0,0,1,8.1.91,43.33,43.33,0,0,1,8.1,2.65,44.81,44.81,0,0,1,7.52,4.16l-5.89,11.78a37.48,37.48,0,0,0-8.92-4.57,27,27,0,0,0-8.91-1.62c-4.26,0-7.57.7-9.9,2.1a6.58,6.58,0,0,0-3.51,5.92v.05a6.87,6.87,0,0,0,1.83,5.05,11,11,0,0,0,4.52,2.72,75.48,75.48,0,0,0,7.57,1.83,2.79,2.79,0,0,0,.4.07l.41.08a5.61,5.61,0,0,1,.59.13,5,5,0,0,0,.58.12,62.37,62.37,0,0,1,11.7,3.33,18.14,18.14,0,0,1,7.85,6.3q3.15,4.33,3.15,11.85v.11a21.52,21.52,0,0,1-3.3,12.08,20.64,20.64,0,0,1-9.63,7.67,39.35,39.35,0,0,1-15.2,2.64Z" transform="translate(-308.86 -207.53)"/><path class="cls-3" d="M699.67,432.62h13.91v73.84H699.67Zm5,0h44.43V446H704.7Zm0,30.47h38.84V476.5H704.7Zm0,30h44.43v13.41H704.7Z" transform="translate(-308.86 -207.53)"/><path class="cls-3" d="M789.75,432.62h13.92v73.84H789.75Zm5.08,0h43.42V446H794.83Zm0,31.13h37.83v13.41H794.83Z" transform="translate(-308.86 -207.53)"/><path class="cls-3" d="M848.91,432.57h13.92v73.89H848.91Zm5.54,30.77h25.69a6.68,6.68,0,0,0,3.76-1.06,7,7,0,0,0,2.52-3,11.77,11.77,0,0,0,.94-4.57,11.09,11.09,0,0,0-.89-4.57,7,7,0,0,0-2.52-3,6.77,6.77,0,0,0-3.81-1.06H854.45V432.57h26.81A20.7,20.7,0,0,1,892,435.31a18.59,18.59,0,0,1,7.16,7.75,27.76,27.76,0,0,1,0,23.2A18.53,18.53,0,0,1,892,474a20.62,20.62,0,0,1-10.69,2.74H854.45ZM870,474.47l14.88-2.34,19.9,34.33H887.91Z" transform="translate(-308.86 -207.53)"/><path class="cls-3" d="M916.71,432.62h13.91v73.84H916.71Zm5,0h44.44V446H921.73Zm0,30.47h38.85V476.5H921.73Zm0,30h44.44v13.41H921.73Z" transform="translate(-308.86 -207.53)"/><path class="cls-3" d="M978.86,432.62h13.92v73.84H978.86Zm5,0h44.43V446H983.89Zm0,30.47h38.85V476.5H983.89Zm0,30h44.43v13.41H983.89Z" transform="translate(-308.86 -207.53)"/><path class="cls-1" d="M832.64,366.46s-49.91-89.1,120.57-125.41c0,0,22.62-.47,54.63-33.52,0,0,50.34,208.13-158.08,179.1,0,0-9.92-4.48-17.12-20.17" transform="translate(-308.86 -207.53)"/><path class="cls-3" d="M843,357.05s-43.85-78.29,105.94-110.2c0,0,19.88-.41,48-29.45,0,0,44.23,182.88-138.9,157.37,0,0,28.38-61.46,107.74-98,0,0-96.51,21.61-122.79,80.28" transform="translate(-308.86 -207.53)"/><path class="cls-3" d="M823.57,337.67s32-57.08-77.23-80.34c0,0-14.49-.3-35-21.47,0,0-32.24,133.32,101.26,114.73,0,0-20.69-44.81-78.54-71.45,0,0,70.35,15.76,89.51,58.53" transform="translate(-308.86 -207.53)"/></svg>