<svg xmlns="http://www.w3.org/2000/svg" viewBox="0 0 30.25 30.25"><defs><style>.cls-1{fill:none;stroke:#000;stroke-miterlimit:10;stroke-width:0.25px;}.cls-2{fill:#fff;}</style></defs><title>lactose-30px</title><g id="Layer_2" data-name="Layer 2"><g id="LACTOSE"><circle class="cls-1" cx="15.13" cy="15.13" r="15"/><path class="cls-2" d="M12.2,25.39s-1.66-.49-1.66-2.95a101.41,101.41,0,0,1,.33-10.53,11.75,11.75,0,0,1,.6-1.79,7.77,7.77,0,0,0,.78-3A1.66,1.66,0,0,0,12,6.36l-.07-.13c-.09-.17-.5-1,.27-1.45h5.95c.71.41.3,1.27.21,1.44l-.07.13A1.66,1.66,0,0,0,18,7.1a7.77,7.77,0,0,0,.78,3,11.75,11.75,0,0,1,.6,1.79,101.41,101.41,0,0,1,.33,10.53c0,2.35-1.52,2.9-1.68,2.95Z"/><path d="M18.06,4.92c.58.36.28,1,.17,1.26l-.07.12a1.87,1.87,0,0,0-.28.79,7.7,7.7,0,0,0,.78,3.07,11.66,11.66,0,0,1,.6,1.78c.32,1.6.32,8.06.32,10.5,0,2.21-1.35,2.76-1.57,2.83H12.24c-.22-.08-1.57-.62-1.57-2.83,0-2.44,0-8.9.32-10.5a11.66,11.66,0,0,1,.6-1.78,7.7,7.7,0,0,0,.78-3.07,1.87,1.87,0,0,0-.28-.79L12,6.18c-.11-.21-.41-.9.17-1.26h5.87m.07-.25h-6a1.13,1.13,0,0,0-.32,1.62,1.94,1.94,0,0,1,.32.81c.07,1.54-1.09,3.36-1.38,4.79-.32,1.62-.32,8-.32,10.55s1.78,3.08,1.78,3.08h5.85s1.78-.49,1.78-3.08,0-8.93-.32-10.55c-.29-1.43-1.45-3.25-1.38-4.79a1.94,1.94,0,0,1,.32-.81,1.13,1.13,0,0,0-.32-1.62Z"/><rect x="1.49" y="15.61" width="28.6" height="0.46" transform="translate(-6.58 15.8) rotate(-45)"/><path class="cls-2" d="M25.73,5.74l.15.15-20,20-.15-.14,20-20m0-.35L5.34,25.79l.5.5L26.23,5.89l-.5-.5Z"/></g></g></svg>