<svg id="Layer_1" data-name="Layer 1" xmlns="http://www.w3.org/2000/svg" viewBox="0 0 777.58 340.42"><defs><style>.cls-1{fill:#9ccc66;}.cls-2{fill:#fff;}.cls-3{fill:none;stroke:#9ccc66;stroke-width:16.5px;}</style></defs><title>Untitled-1</title><path class="cls-1" d="M690.33,213.9c16.63,23.94,57.8,87.87,57.8,133.39s-41.2,74.19-57.8,83.87v-39l35.83-24.27,3.68-22.5-39.51,26.36V328.42l20-12.22-1-17.19-18.94,14.55V213.9ZM676.64,431.13c-16.62-9.69-57.79-38.27-57.81-83.79s41.23-109.53,57.81-133.46v99.68L657.7,299l-1,17.18,20,12.23v43.36l-39.51-26.36,4.52,23.63,35,23.14v38.94Z" transform="translate(-294.69 -213.88)"/><path class="cls-1" d="M500.08,342.56c24.05,5.35,86.55,21,115.5,45.19s25.34,57.56,22.69,70l-24.79-20.67,3.57-28.71-12.36-13.56-4.19,31.45-27.57-23L575.74,388l-11.48-8.66-.79,16.1-63.39-52.86ZM631,463.82c-15,2.21-55,5.25-84-18.88s-47.8-76.31-54.23-96.34l63.4,52.87-19.3.66,10.39,9.56,18.37-2.34,27.57,23-37.72,3.49L573,446.37l33.27-3.2L631,463.82Z" transform="translate(-294.69 -213.88)"/><path class="cls-1" d="M866.88,342.56c-24,5.35-86.54,21-115.5,45.19s-25.34,57.56-22.69,70l24.79-20.67-3.57-28.71,12.36-13.56,4.19,31.45,27.58-23L791.23,388l11.47-8.66.79,16.1,63.39-52.86ZM736,463.82c15,2.21,55,5.25,83.95-18.88s47.81-76.31,54.23-96.34l-63.4,52.87,19.31.66-10.39,9.56-18.37-2.34-27.58,23,37.72,3.49L794,446.37l-33.27-3.2L736,463.82Z" transform="translate(-294.69 -213.88)"/><polygon class="cls-2" points="8.25 211.9 8.25 332.17 769.33 332.17 769.33 211.9 8.25 211.9 8.25 211.9"/><polygon class="cls-3" points="8.25 211.9 8.25 332.17 769.33 332.17 769.33 211.9 8.25 211.9 8.25 211.9"/><path class="cls-1" d="M343.89,444h16.05v85.2H343.89ZM351,513.73H401V529.2H351Z" transform="translate(-294.69 -213.88)"/><path class="cls-1" d="M412.68,444h16.05v85.2H412.68Zm5.8,0h51.27v15.47H418.48Zm0,35.16H463.3v15.47H418.48Zm0,34.57h51.27V529.2H418.48Z" transform="translate(-294.69 -213.88)"/><path class="cls-1" d="M505.08,530.07l-5.83-1.23a51.22,51.22,0,0,1-11-3.6,42.26,42.26,0,0,1-9.17-5.71l7.44-13.24a36.22,36.22,0,0,0,11.37,6.24,40.89,40.89,0,0,0,13.24,2.19q7.86,0,12.19-2.66a8.39,8.39,0,0,0,4.34-7.53v-.06a7.4,7.4,0,0,0-1.94-5.39,11.43,11.43,0,0,0-5-2.93,60.31,60.31,0,0,0-8-1.7,1,1,0,0,0-.32-.06,1,1,0,0,1-.32-.06l-1.29-.17a80,80,0,0,1-14.18-3.37,20.9,20.9,0,0,1-9.55-7.09q-3.93-5.07-3.93-14.39v-.06a25.9,25.9,0,0,1,3.7-14.12,23.29,23.29,0,0,1,10.72-8.93,42.28,42.28,0,0,1,17-3.08,42.91,42.91,0,0,1,9.35,1.06,51.52,51.52,0,0,1,18,7.85l-6.79,13.59a43.2,43.2,0,0,0-10.29-5.27,31.1,31.1,0,0,0-10.28-1.88q-7.38,0-11.43,2.43a7.61,7.61,0,0,0-4,6.83v.06a7.93,7.93,0,0,0,2.11,5.83,12.47,12.47,0,0,0,5.22,3.13,80.82,80.82,0,0,0,8.73,2.11,3.55,3.55,0,0,0,.47.09,3.73,3.73,0,0,1,.46.09,6.78,6.78,0,0,1,.68.15l.67.14A72.14,72.14,0,0,1,531,483.17a21,21,0,0,1,9,7.27q3.63,5,3.63,13.68v.11a24.85,24.85,0,0,1-3.81,13.95,23.8,23.8,0,0,1-11.1,8.85,45.46,45.46,0,0,1-17.55,3Z" transform="translate(-294.69 -213.88)"/><path class="cls-1" d="M576.62,530.07l-5.83-1.23a51.22,51.22,0,0,1-11-3.6,42.5,42.5,0,0,1-9.17-5.71l7.45-13.24a36.28,36.28,0,0,0,11.36,6.24,40.89,40.89,0,0,0,13.24,2.19q7.86,0,12.19-2.66a8.39,8.39,0,0,0,4.34-7.53v-.06a7.4,7.4,0,0,0-1.94-5.39,11.34,11.34,0,0,0-5-2.93,61,61,0,0,0-8-1.7,1.05,1.05,0,0,0-.33-.06,1,1,0,0,1-.32-.06l-1.29-.17a80,80,0,0,1-14.18-3.37,20.9,20.9,0,0,1-9.55-7.09q-3.92-5.07-3.92-14.39v-.06a26,26,0,0,1,3.69-14.12,23.29,23.29,0,0,1,10.72-8.93,42.28,42.28,0,0,1,17-3.08,42.91,42.91,0,0,1,9.35,1.06,50.93,50.93,0,0,1,9.34,3,52.11,52.11,0,0,1,8.68,4.81l-6.8,13.59a43.33,43.33,0,0,0-10.28-5.27,31.2,31.2,0,0,0-10.29-1.88q-7.38,0-11.42,2.43a7.6,7.6,0,0,0-4.05,6.83v.06a8,8,0,0,0,2.11,5.83,12.53,12.53,0,0,0,5.22,3.13,80.82,80.82,0,0,0,8.73,2.11,3.55,3.55,0,0,0,.47.09l.47.09a6.58,6.58,0,0,1,.67.15l.67.14a71.7,71.7,0,0,1,13.51,3.84,21,21,0,0,1,9,7.27q3.63,5,3.64,13.68v.11a24.85,24.85,0,0,1-3.81,13.95A23.78,23.78,0,0,1,600.26,527a45.46,45.46,0,0,1-17.55,3Z" transform="translate(-294.69 -213.88)"/><path class="cls-1" d="M682.73,530.07l-5.83-1.23a51.13,51.13,0,0,1-10.95-3.6,42,42,0,0,1-9.17-5.71l7.44-13.24a36.22,36.22,0,0,0,11.37,6.24,40.85,40.85,0,0,0,13.24,2.19q7.84,0,12.19-2.66a8.38,8.38,0,0,0,4.33-7.53v-.06a7.4,7.4,0,0,0-1.93-5.39,11.43,11.43,0,0,0-5-2.93,60.67,60.67,0,0,0-8-1.7,1,1,0,0,0-.32-.06,1,1,0,0,1-.32-.06l-1.29-.17a79.82,79.82,0,0,1-14.18-3.37,20.85,20.85,0,0,1-9.55-7.09q-3.93-5.07-3.93-14.39v-.06a26,26,0,0,1,3.69-14.12,23.34,23.34,0,0,1,10.72-8.93,42.3,42.3,0,0,1,17-3.08,42.82,42.82,0,0,1,9.34,1.06,51,51,0,0,1,9.35,3,52,52,0,0,1,8.67,4.81l-6.8,13.59a43.33,43.33,0,0,0-10.28-5.27,31.1,31.1,0,0,0-10.28-1.88c-4.93,0-8.73.81-11.43,2.43a7.61,7.61,0,0,0-4,6.83v.06a7.93,7.93,0,0,0,2.11,5.83,12.43,12.43,0,0,0,5.21,3.13,80.82,80.82,0,0,0,8.73,2.11l.47.09a3.89,3.89,0,0,1,.47.09,6.58,6.58,0,0,1,.67.15l.68.14a71.79,71.79,0,0,1,13.5,3.84,21,21,0,0,1,9.06,7.27q3.63,5,3.63,13.68v.11a24.85,24.85,0,0,1-3.81,13.95,23.8,23.8,0,0,1-11.1,8.85,45.53,45.53,0,0,1-17.55,3Z" transform="translate(-294.69 -213.88)"/><path class="cls-1" d="M746.66,526.35a24.76,24.76,0,0,1-10.61-10.84q-3.63-7.11-3.63-17.13V444h16.06v54.79q0,7.32,3.92,11.36t11.08,4.05q7.2,0,11.16-4.05t4-11.36V444h16.06v54.38q0,10-3.66,17.13a24.89,24.89,0,0,1-10.67,10.84q-7,3.72-16.84,3.72T746.66,526.35Z" transform="translate(-294.69 -213.88)"/><path class="cls-1" d="M870.47,481.56V498.2a35.18,35.18,0,0,1-3.84,16.73,27.2,27.2,0,0,1-10.87,11.19,32.64,32.64,0,0,1-16.29,4A34.94,34.94,0,0,1,823,526.35a26.61,26.61,0,0,1-11-10.51,31.15,31.15,0,0,1-3.89-15.77V474.94a35,35,0,0,1,3.83-16.7,27.12,27.12,0,0,1,10.87-11.16,32.64,32.64,0,0,1,16.29-4,31.68,31.68,0,0,1,14.06,3.14,29.28,29.28,0,0,1,10.76,8.87,32.64,32.64,0,0,1,5.83,13.3H852.42a11.14,11.14,0,0,0-2.9-4.65,13.6,13.6,0,0,0-4.74-3,15.84,15.84,0,0,0-5.66-1,14.82,14.82,0,0,0-7.53,1.88,12.72,12.72,0,0,0-5,5.33,17.11,17.11,0,0,0-1.78,8v25.13a13.49,13.49,0,0,0,1.81,7,12,12,0,0,0,5.16,4.68,17.21,17.21,0,0,0,7.73,1.64,15.54,15.54,0,0,0,7.59-1.78,12.08,12.08,0,0,0,5-5.19,17.26,17.26,0,0,0,1.76-8V497H840.94V481.56Z" transform="translate(-294.69 -213.88)"/><path class="cls-1" d="M908.32,444h10.2l32.57,85.2H933.81L913.42,471,893,529.2H875.74Zm-16.93,56.07h44.82v15.47H891.39Z" transform="translate(-294.69 -213.88)"/><path class="cls-1" d="M961.64,443.94H977.7V529.2H961.64ZM968,479.45h29.65a7.71,7.71,0,0,0,4.33-1.23,7.94,7.94,0,0,0,2.9-3.52,13.48,13.48,0,0,0,1.09-5.27,12.8,12.8,0,0,0-1-5.27,7.94,7.94,0,0,0-2.9-3.52,7.84,7.84,0,0,0-4.39-1.23H968V443.94H999a23.79,23.79,0,0,1,12.37,3.17,21.31,21.31,0,0,1,8.26,8.93,32.06,32.06,0,0,1,0,26.78,21.31,21.31,0,0,1-8.29,8.93A23.84,23.84,0,0,1,999,494.92H968ZM986,492.28l17.17-2.69,23,39.61h-19.45Z" transform="translate(-294.69 -213.88)"/></svg>