<svg xmlns="http://www.w3.org/2000/svg" viewBox="0 0 70.5 70.5"><defs><style>.cls-1{fill:none;stroke:#000;stroke-miterlimit:10;stroke-width:0.5px;}</style></defs><title>less-sugar-70px</title><g id="Layer_2" data-name="Layer 2"><g id="less_sugar" data-name="less sugar"><circle class="cls-1" cx="35.25" cy="35.25" r="35"/><path class="cls-1" d="M9.73,23.06s-1.7,0-1.94-1,.72-1.94,3.88-2.18c2.91-.22,9.46.85,21.91,8.27a21.91,21.91,0,0,1,5.69,5.21c2.71,3.88,7.46,3.68,8.42,3.75h.24c1,0,10.56.11,14.24,6.31C66.05,50,49.54,54.62,42.74,44.91,40.56,41.75,39.59,33.5,33,30.1S18.71,22.81,9.73,23.06Z"/><path d="M42.52,42.23a13.84,13.84,0,0,0,1.53,2.11,16.84,16.84,0,0,0,1.82,1.86,13.32,13.32,0,0,0,4.45,2.6,11.8,11.8,0,0,0,5.1.68A15.11,15.11,0,0,0,58,49.07c.84-.19,1.66-.51,2.49-.77-.82.3-1.62.66-2.46.89a14.18,14.18,0,0,1-2.59.45,11.9,11.9,0,0,1-5.19-.6A14.64,14.64,0,0,1,42.52,42.23Z"/><path d="M46.25,40.5c0,.06.11.1.25.1s.25,0,.25-.1-.11-.1-.25-.1S46.25,40.44,46.25,40.5Z"/><path d="M49.25,41.5c0,.06.11.1.25.1s.25,0,.25-.1-.11-.1-.25-.1S49.25,41.44,49.25,41.5Z"/><path d="M47.5,42.75c.06,0,.1-.08.1-.17s0-.18-.1-.18-.1.08-.1.18S47.44,42.75,47.5,42.75Z"/><path d="M48.25,40.5c0,.06.11.1.25.1s.25,0,.25-.1-.11-.1-.25-.1S48.25,40.44,48.25,40.5Z"/><path d="M48.5,43.75c.06,0,.1-.08.1-.17s0-.18-.1-.18-.1.08-.1.18S48.44,43.75,48.5,43.75Z"/><path d="M52.5,44.75c.06,0,.1-.08.1-.17s0-.18-.1-.18-.1.08-.1.18S52.44,44.75,52.5,44.75Z"/><path d="M48.5,41.75c.06,0,.1-.08.1-.17s0-.18-.1-.18-.1.08-.1.18S48.44,41.75,48.5,41.75Z"/><path d="M49.6,42.58c0-.1,0-.18-.1-.18s-.1.08-.1.18,0,.17.1.17S49.6,42.67,49.6,42.58Z"/><path d="M51.5,40.75c.06,0,.1-.08.1-.17s0-.18-.1-.18-.1.08-.1.18S51.44,40.75,51.5,40.75Z"/><path d="M57.5,42.4c-.06,0-.1.08-.1.18s0,.17.1.17.1-.08.1-.17S57.56,42.4,57.5,42.4Z"/><path d="M52.5,41.65c.06,0,.1,0,.1-.07s0-.08-.1-.08-.1,0-.1.08S52.44,41.65,52.5,41.65Z"/><path d="M53.5,43.4c-.06,0-.1.08-.1.18s0,.17.1.17.1-.08.1-.17S53.56,43.4,53.5,43.4Z"/><path d="M54.5,47.4c-.06,0-.1.08-.1.18s0,.17.1.17.1-.08.1-.17S54.56,47.4,54.5,47.4Z"/><path d="M55.6,43.58c0-.1,0-.18-.1-.18s-.1.08-.1.18,0,.17.1.17S55.6,43.67,55.6,43.58Z"/><path d="M52.5,42.65c.06,0,.1,0,.1-.07s0-.08-.1-.08-.1,0-.1.08S52.44,42.65,52.5,42.65Z"/><path d="M52.5,39.65c.06,0,.1,0,.1-.07s0-.08-.1-.08-.1,0-.1.08S52.44,39.65,52.5,39.65Z"/><path d="M54.5,45.5c-.06,0-.1,0-.1.08s0,.07.1.07.1,0,.1-.07S54.56,45.5,54.5,45.5Z"/><path d="M54.5,44.5c-.06,0-.1,0-.1.08s0,.07.1.07.1,0,.1-.07S54.56,44.5,54.5,44.5Z"/><path d="M54.5,46.5c-.06,0-.1,0-.1.08s0,.07.1.07.1,0,.1-.07S54.56,46.5,54.5,46.5Z"/><path d="M56.5,44.65c.06,0,.1,0,.1-.07s0-.08-.1-.08-.1,0-.1.08S56.44,44.65,56.5,44.65Z"/><path d="M53.5,45.5c-.06,0-.1,0-.1.08s0,.07.1.07.1,0,.1-.07S53.56,45.5,53.5,45.5Z"/><path d="M58.5,44.65c.06,0,.1,0,.1-.07s0-.08-.1-.08-.1,0-.1.08S58.44,44.65,58.5,44.65Z"/><path d="M54.5,42.5c-.06,0-.1,0-.1.08s0,.07.1.07.1,0,.1-.07S54.56,42.5,54.5,42.5Z"/><path d="M54.5,41.5c-.06,0-.1,0-.1.08s0,.07.1.07.1,0,.1-.07S54.56,41.5,54.5,41.5Z"/><path d="M53.5,41.4c-.06,0-.1.08-.1.18s0,.17.1.17.1-.08.1-.17S53.56,41.4,53.5,41.4Z"/><path d="M47.5,43.5c-.08,0-.15,0-.15.08s.07.07.15.07.15,0,.15-.07S47.58,43.5,47.5,43.5Z"/><path d="M47.5,44.5c-.08,0-.15,0-.15.08s.07.07.15.07.15,0,.15-.07S47.58,44.5,47.5,44.5Z"/><path d="M48.5,44.5c-.08,0-.15,0-.15.08s.07.07.15.07.15,0,.15-.07S48.58,44.5,48.5,44.5Z"/><path d="M49.5,43.5c-.08,0-.15,0-.15.08s.07.07.15.07.15,0,.15-.07S49.58,43.5,49.5,43.5Z"/><path d="M49.5,45.5c-.08,0-.15,0-.15.08s.07.07.15.07.15,0,.15-.07S49.58,45.5,49.5,45.5Z"/><path d="M50.5,45.5c-.08,0-.15,0-.15.08s.07.07.15.07.15,0,.15-.07S50.58,45.5,50.5,45.5Z"/><path d="M50.5,44.5c-.08,0-.15,0-.15.08s.07.07.15.07.15,0,.15-.07S50.58,44.5,50.5,44.5Z"/><path d="M50.5,46.5c-.08,0-.15,0-.15.08s.07.07.15.07.15,0,.15-.07S50.58,46.5,50.5,46.5Z"/><path d="M50.5,40.5c-.08,0-.15,0-.15.08s.07.07.15.07.15,0,.15-.07S50.58,40.5,50.5,40.5Z"/><path d="M56.5,45.5c-.08,0-.15,0-.15.08s.07.07.15.07.15,0,.15-.07S56.58,45.5,56.5,45.5Z"/><path d="M58.5,45.5c-.08,0-.15,0-.15.08s.07.07.15.07.15,0,.15-.07S58.58,45.5,58.5,45.5Z"/><path d="M50.5,42.5c-.08,0-.15,0-.15.08s.07.07.15.07.15,0,.15-.07S50.58,42.5,50.5,42.5Z"/><path d="M51.5,43.5c-.08,0-.15,0-.15.08s.07.07.15.07.15,0,.15-.07S51.58,43.5,51.5,43.5Z"/><path d="M52.5,45.5c-.08,0-.15,0-.15.08s.07.07.15.07.15,0,.15-.07S52.58,45.5,52.5,45.5Z"/><path d="M55.5,47.5c-.08,0-.15,0-.15.08s.07.07.15.07.15,0,.15-.07S55.58,47.5,55.5,47.5Z"/><path d="M55.5,41.5c-.08,0-.15,0-.15.08s.07.07.15.07.15,0,.15-.07S55.58,41.5,55.5,41.5Z"/><path d="M51.5,46.5c-.08,0-.15,0-.15.08s.07.07.15.07.15,0,.15-.07S51.58,46.5,51.5,46.5Z"/><path d="M52.5,47.5c-.08,0-.15,0-.15.08s.07.07.15.07.15,0,.15-.07S52.58,47.5,52.5,47.5Z"/></g></g></svg>