<svg xmlns="http://www.w3.org/2000/svg" viewBox="0 0 30.25 30.25"><defs><style>.cls-1,.cls-2{fill:none;stroke:#000;stroke-miterlimit:10;}.cls-1{stroke-width:0.25px;}.cls-2{stroke-width:0.2px;}</style></defs><title>less-suga-30px</title><g id="Layer_2" data-name="Layer 2"><g id="less_sugar" data-name="less sugar"><circle class="cls-1" cx="15.13" cy="15.13" r="15"/><path class="cls-2" d="M3.35,10.09s-.78,0-.89-.45.33-.89,1.79-1S8.61,9,14.36,12.45A10.15,10.15,0,0,1,17,14.85a4.67,4.67,0,0,0,3.88,1.73H21c.48,0,4.87.05,6.57,2.91,1.79,3-5.82,5.15-9,.67-1-1.46-1.45-5.26-4.48-6.83S7.5,10,3.35,10.09Z"/><path d="M18.48,18.94A7.72,7.72,0,0,0,20,20.77,6,6,0,0,0,22.07,22a5.26,5.26,0,0,0,2.36.31,8.58,8.58,0,0,0,2.33-.54c-.38.13-.75.29-1.14.4a6.74,6.74,0,0,1-1.19.21A5.41,5.41,0,0,1,22,22.07,6.78,6.78,0,0,1,18.48,18.94Z"/><path d="M20.09,17.75s.06.05.13.05.12,0,.12-.05-.05-.05-.12-.05S20.09,17.72,20.09,17.75Z"/><path d="M21.59,18.25s.06.05.13.05.12,0,.12-.05-.05-.05-.12-.05S21.59,18.22,21.59,18.25Z"/><path d="M20.72,18.88s.05,0,.05-.09,0-.09-.05-.09,0,0,0,.09S20.69,18.88,20.72,18.88Z"/><path d="M21.09,17.75s.06.05.13.05.12,0,.12-.05-.05-.05-.12-.05S21.09,17.72,21.09,17.75Z"/><path d="M21.22,19.38s.05,0,.05-.09,0-.09-.05-.09,0,0,0,.09S21.19,19.38,21.22,19.38Z"/><path d="M23.22,19.88s.05,0,.05-.09,0-.09-.05-.09,0,0,0,.09S23.19,19.88,23.22,19.88Z"/><path d="M21.22,18.38s.05,0,.05-.09,0-.09-.05-.09,0,0,0,.09S21.19,18.38,21.22,18.38Z"/><path d="M21.77,18.79c0-.05,0-.09-.05-.09s0,0,0,.09,0,.09,0,.09S21.77,18.84,21.77,18.79Z"/><path d="M22.72,17.88s.05,0,.05-.09,0-.09-.05-.09,0,0,0,.09S22.69,17.88,22.72,17.88Z"/><path d="M25.72,18.7s0,0,0,.09,0,.09,0,.09.05,0,.05-.09S25.74,18.7,25.72,18.7Z"/><path d="M23.22,18.32s.05,0,.05,0,0,0-.05,0a0,0,0,0,0,0,0S23.19,18.32,23.22,18.32Z"/><path d="M23.72,19.2s0,0,0,.09,0,.09,0,.09.05,0,.05-.09S23.74,19.2,23.72,19.2Z"/><path d="M24.22,21.2s0,0,0,.09,0,.09,0,.09.05,0,.05-.09S24.24,21.2,24.22,21.2Z"/><path d="M24.77,19.29c0-.05,0-.09-.05-.09s0,0,0,.09,0,.09,0,.09S24.77,19.34,24.77,19.29Z"/><path d="M23.22,18.82s.05,0,.05,0,0,0-.05,0a0,0,0,0,0,0,0S23.19,18.82,23.22,18.82Z"/><path d="M23.22,17.32s.05,0,.05,0,0,0-.05,0a0,0,0,0,0,0,0S23.19,17.32,23.22,17.32Z"/><path d="M24.22,20.25a0,0,0,0,0,0,0s0,0,0,0,.05,0,.05,0S24.24,20.25,24.22,20.25Z"/><path d="M24.22,19.75a0,0,0,0,0,0,0s0,0,0,0,.05,0,.05,0S24.24,19.75,24.22,19.75Z"/><path d="M24.22,20.75a0,0,0,0,0,0,0s0,0,0,0,.05,0,.05,0S24.24,20.75,24.22,20.75Z"/><path d="M25.22,19.82s.05,0,.05,0,0,0-.05,0a0,0,0,0,0,0,0S25.19,19.82,25.22,19.82Z"/><path d="M23.72,20.25a0,0,0,0,0,0,0s0,0,0,0,.05,0,.05,0S23.74,20.25,23.72,20.25Z"/><path d="M26.22,19.82s.05,0,.05,0,0,0-.05,0a0,0,0,0,0,0,0S26.19,19.82,26.22,19.82Z"/><path d="M24.22,18.75a0,0,0,0,0,0,0s0,0,0,0,.05,0,.05,0S24.24,18.75,24.22,18.75Z"/><path d="M24.22,18.25a0,0,0,0,0,0,0s0,0,0,0,.05,0,.05,0S24.24,18.25,24.22,18.25Z"/><path d="M23.72,18.2s0,0,0,.09,0,.09,0,.09.05,0,.05-.09S23.74,18.2,23.72,18.2Z"/><path d="M20.72,19.25s-.08,0-.08,0,0,0,.08,0,.07,0,.07,0S20.76,19.25,20.72,19.25Z"/><path d="M20.72,19.75s-.08,0-.08,0,0,0,.08,0,.07,0,.07,0S20.76,19.75,20.72,19.75Z"/><path d="M21.22,19.75s-.08,0-.08,0,0,0,.08,0,.07,0,.07,0S21.26,19.75,21.22,19.75Z"/><path d="M21.72,19.25s-.08,0-.08,0,0,0,.08,0,.07,0,.07,0S21.76,19.25,21.72,19.25Z"/><path d="M21.72,20.25s-.08,0-.08,0,0,0,.08,0,.07,0,.07,0S21.76,20.25,21.72,20.25Z"/><path d="M22.22,20.25s-.08,0-.08,0,0,0,.08,0,.07,0,.07,0S22.26,20.25,22.22,20.25Z"/><path d="M22.22,19.75s-.08,0-.08,0,0,0,.08,0,.07,0,.07,0S22.26,19.75,22.22,19.75Z"/><path d="M22.22,20.75s-.08,0-.08,0,0,0,.08,0,.07,0,.07,0S22.26,20.75,22.22,20.75Z"/><path d="M22.22,17.75s-.08,0-.08,0,0,0,.08,0,.07,0,.07,0S22.26,17.75,22.22,17.75Z"/><path d="M25.22,20.25s-.08,0-.08,0,0,0,.08,0,.07,0,.07,0S25.26,20.25,25.22,20.25Z"/><path d="M26.22,20.25s-.08,0-.08,0,0,0,.08,0,.07,0,.07,0S26.26,20.25,26.22,20.25Z"/><path d="M22.22,18.75s-.08,0-.08,0,0,0,.08,0,.07,0,.07,0S22.26,18.75,22.22,18.75Z"/><path d="M22.72,19.25s-.08,0-.08,0,0,0,.08,0,.07,0,.07,0S22.76,19.25,22.72,19.25Z"/><path d="M23.22,20.25s-.08,0-.08,0,0,0,.08,0,.07,0,.07,0S23.26,20.25,23.22,20.25Z"/><path d="M24.72,21.25s-.08,0-.08,0,0,0,.08,0,.07,0,.07,0S24.76,21.25,24.72,21.25Z"/><path d="M24.72,18.25s-.08,0-.08,0,0,0,.08,0,.07,0,.07,0S24.76,18.25,24.72,18.25Z"/><path d="M22.72,20.75s-.08,0-.08,0,0,0,.08,0,.07,0,.07,0S22.76,20.75,22.72,20.75Z"/><path d="M23.22,21.25s-.08,0-.08,0,0,0,.08,0,.07,0,.07,0S23.26,21.25,23.22,21.25Z"/></g></g></svg>