<svg xmlns="http://www.w3.org/2000/svg" xmlns:xlink="http://www.w3.org/1999/xlink" viewBox="0 0 216.26 189.91"><defs><style>.cls-1{fill:#72bf44;}.cls-2{fill:#48a842;}.cls-3{fill:#00b37d;}.cls-4{fill:#378b36;}.cls-5{fill:#f58220;}.cls-6{fill:url(#linear-gradient);}.cls-7{fill:url(#linear-gradient-2);}.cls-8{fill:url(#linear-gradient-3);}</style><linearGradient id="linear-gradient" x1="-549.73" y1="108.95" x2="-451.42" y2="165.71" gradientTransform="translate(585)" gradientUnits="userSpaceOnUse"><stop offset="0.14" stop-color="#fdb913"/><stop offset="0.6" stop-color="#f58220"/></linearGradient><linearGradient id="linear-gradient-2" x1="-456.55" y1="174.6" x2="-484.08" y2="158.7" gradientTransform="translate(585)" gradientUnits="userSpaceOnUse"><stop offset="0.45" stop-color="#f58220"/><stop offset="0.78" stop-color="#8e4a02"/></linearGradient><linearGradient id="linear-gradient-3" x1="-496.33" y1="178.66" x2="-400.78" y2="83.11" gradientTransform="translate(585)" gradientUnits="userSpaceOnUse"><stop offset="0.03" stop-color="#8e4a02"/><stop offset="0.15" stop-color="#b66113"/><stop offset="0.5" stop-color="#f58220"/><stop offset="1" stop-color="#fdb913"/></linearGradient></defs><title>Logo-selbstheilung</title><g id="Layer_2" data-name="Layer 2"><g id="Logo"><path class="cls-1" d="M78.53,35c.72,12-9.29,22.43-9.29,22.43S58.07,48.28,57.36,36.24s9.29-22.43,9.29-22.43S77.81,22.94,78.53,35Z"/><path class="cls-2" d="M110.65,50.21c.79,8.79-6.29,16.62-6.29,16.62S96,60.4,95.18,51.61,101.47,35,101.47,35,109.85,41.42,110.65,50.21Z"/><path class="cls-2" d="M18.9,74.44C8.38,74.27,0,64.87,0,64.87s8.68-9.11,19.21-8.94,18.9,9.57,18.9,9.57S29.42,74.61,18.9,74.44Z"/><path class="cls-3" d="M36.24,29.12c-3.92-8.8.65-19.37.65-19.37S47.8,13.44,51.72,22.24s-.66,19.37-.66,19.37S40.15,37.92,36.24,29.12Z"/><path class="cls-3" d="M81.44,20.54C82.61,10.82,92.1,4,92.1,4s7.61,8.91,6.44,18.63S87.87,39.17,87.87,39.17,80.27,30.27,81.44,20.54Z"/><path class="cls-3" d="M80.23,63.59c-1.77-7,2.94-14.2,2.94-14.2s7.58,4.1,9.35,11.08-2.94,14.21-2.94,14.21S82,70.57,80.23,63.59Z"/><path class="cls-4" d="M58,53.19c6.44,8.51,4.19,21.08,4.19,21.08S49.51,73,43.06,64.53s-4.19-21.07-4.19-21.07S51.58,44.68,58,53.19Z"/><path class="cls-4" d="M118.37,18.37c-1.18,8.56-9.66,14.47-9.66,14.47s-6.57-8-5.4-16.53S113,1.84,113,1.84,119.54,9.81,118.37,18.37Z"/><path class="cls-4" d="M24.56,93.06c-6.93.92-13.37-4.43-13.37-4.43S16,81.78,22.93,80.86,36.3,85.28,36.3,85.28,31.5,92.13,24.56,93.06Z"/><path class="cls-3" d="M51.48,98.59C48,105.68,39,108.4,39,108.4s-3.44-8.78,0-15.87,12.48-9.81,12.48-9.81S54.93,91.5,51.48,98.59Z"/><path class="cls-3" d="M155,33.55c-3.5,6.46-12,8.62-12,8.62s-2.84-8.32.66-14.78,12-8.63,12-8.63S158.52,27.08,155,33.55Z"/><path class="cls-3" d="M193.56,72.15c-7.15,1.24-14-4-14-4s4.71-7.3,11.86-8.54,14,4,14,4S200.71,70.91,193.56,72.15Z"/><path class="cls-1" d="M202.14,52.67c-5.41,3.6-12.95,1.75-12.95,1.75s1.22-7.67,6.63-11.26,13-1.75,13-1.75S207.55,49.08,202.14,52.67Z"/><path class="cls-1" d="M132.26,10c-2.3,4.41-8,6-8,6s-2-5.59.26-10,8-6,8-6S134.55,5.59,132.26,10Z"/><path class="cls-4" d="M69.15,78.31c-2.5-5.9.66-12.89.66-12.89S77,68,79.54,73.91s-.66,12.89-.66,12.89S71.66,84.22,69.15,78.31Z"/><path class="cls-1" d="M173.89,33.22c-2.5,6.79-10.49,10.1-10.49,10.1s-3.94-7.7-1.45-14.49,10.49-10.09,10.49-10.09S176.38,26.44,173.89,33.22Z"/><path class="cls-1" d="M121.7,24c6.27-7.41,17.86-7.9,17.86-7.9S141,27.6,134.72,35s-17.86,7.89-17.86,7.89S115.43,31.38,121.7,24Z"/><path class="cls-4" d="M31.68,104.24c-3,4.31-9.17,5.2-9.17,5.2S21.12,103.33,24.09,99s9.17-5.2,9.17-5.2S34.65,99.92,31.68,104.24Z"/><path class="cls-4" d="M53.34,118.53c-1.48,6-7.93,9.51-7.93,9.51s-4-6.14-2.57-12.11,7.93-9.51,7.93-9.51S54.82,112.56,53.34,118.53Z"/><path class="cls-4" d="M28.9,38.26C34.74,44.54,34,54.78,34,54.78s-10.27,0-16.11-6.23S12.78,32,12.78,32,23.05,32,28.9,38.26Z"/><path class="cls-4" d="M193.1,102.34c4.2,4.51,3.64,11.86,3.64,11.86s-7.37,0-11.57-4.47-3.64-11.87-3.64-11.87S188.9,97.83,193.1,102.34Z"/><path class="cls-1" d="M169.83,117.6c1.51,5-1.7,10.44-1.7,10.44s-5.64-2.75-7.15-7.79,1.7-10.44,1.7-10.44S168.33,112.57,169.83,117.6Z"/><path class="cls-1" d="M40.28,71.69c5.26,0,9.48,4.69,9.48,4.69S45.47,81,40.21,80.93s-9.47-4.69-9.47-4.69S35,71.65,40.28,71.69Z"/><path class="cls-1" d="M207.6,72.73c5.19.83,8.66,6.07,8.66,6.07s-4.93,3.89-10.12,3.06-8.66-6.07-8.66-6.07S202.41,71.9,207.6,72.73Z"/><path class="cls-2" d="M183.74,26.33c-5,3.26-6.26,10.34-6.26,10.34s7,1.79,12-1.47,6.26-10.34,6.26-10.34S188.78,23.07,183.74,26.33Z"/><path class="cls-2" d="M146.11,110.88c-1.42,6.43,3.1,12.9,3.1,12.9s6.81-4,8.22-10.41-3.1-12.9-3.1-12.9S147.52,104.44,146.11,110.88Z"/><path class="cls-1" d="M56,107.28c-1.54-6,2.46-12.19,2.46-12.19s6.51,3.49,8.06,9.47S64,116.75,64,116.75,57.51,113.26,56,107.28Z"/><path class="cls-4" d="M168.54,47.86c-6.4,6.35-6,17.12-6,17.12s10.77.49,17.17-5.86,6-17.13,6-17.13S174.94,41.51,168.54,47.86Z"/><path class="cls-2" d="M138.47,58.23c-4,10.06,1.67,21.69,1.67,21.69s12.05-4.66,16-14.72-1.66-21.69-1.66-21.69S142.43,48.18,138.47,58.23Z"/><path class="cls-3" d="M175,97c-3.27-6.93-12-9.67-12-9.67s-3.44,8.5-.17,15.43,12,9.67,12,9.67S178.29,103.91,175,97Z"/><path class="cls-4" d="M119.09,50.1c-6.21,6-5.93,16.41-5.93,16.41s10.35.56,16.57-5.48,5.93-16.41,5.93-16.41S125.3,44.06,119.09,50.1Z"/><path class="cls-2" d="M188.29,75.88c-9.38-3.09-19.69,2.66-19.69,2.66s4.88,10.74,14.26,13.83,19.68-2.66,19.68-2.66S197.66,79,188.29,75.88Z"/><ellipse class="cls-5" cx="107.59" cy="94.04" rx="9.97" ry="14.73"/><path class="cls-6" d="M126.93,161.06c-2.7-14.41-22.29-54.92-73.39-83.65l-.15.14c9.34,11.89,25.51,32.66,34.35,45,8.54,12,24.66,35.79,24.66,53.19a7.71,7.71,0,0,1-7.81,7.91,18,18,0,0,1-14.34-6.52l.25.85c2.93,8,9.81,11.89,17.82,11.89,10.67,0,19.33-7,19.33-21.2A50.21,50.21,0,0,0,126.93,161.06Z"/><path class="cls-7" d="M126.93,161.06c-1-5.06-4-13.34-9.74-23.21a115.55,115.55,0,0,0-9.45,18.66c2.8,6.69,4.66,13.35,4.66,19.27a7.71,7.71,0,0,1-7.81,7.91,18,18,0,0,1-14.34-6.52l.25.85c2.93,8,9.81,11.89,17.82,11.89,10.67,0,19.33-7,19.33-21.2A50.21,50.21,0,0,0,126.93,161.06Z"/><path class="cls-8" d="M170,68.93l-.15-.15c-59.38,34.35-77.48,77.87-80.18,92.28a50.21,50.21,0,0,0-.72,7.65c0,14.23,8.65,21.2,19.33,21.2,8,0,14.88-3.92,17.82-11.89l.25-.85A18,18,0,0,1,112,183.69a7.71,7.71,0,0,1-7.81-7.91c0-17.4,16.13-41.23,24.67-53.19C141,105.67,166.74,73.1,170,68.93Z"/></g></g></svg>