<svg xmlns="http://www.w3.org/2000/svg" viewBox="0 0 30.25 30.25"><defs><style>.cls-1{fill:none;stroke:#000;stroke-miterlimit:10;stroke-width:0.25px;}</style></defs><title>organic-30px</title><g id="Layer_2" data-name="Layer 2"><g id="ORGAINIC"><path d="M10.69,26.12A16.37,16.37,0,0,1,6.93,24.6,7.47,7.47,0,0,1,4,21.81a9.72,9.72,0,0,1-1.18-3.9c-.06-.68-.07-1.37-.11-2A3.56,3.56,0,0,0,2.17,14L2,13.76l.33,0a33.83,33.83,0,0,1,4.35.76,19.28,19.28,0,0,1,2.12.66,6.66,6.66,0,0,1,2,1.08,6.78,6.78,0,0,1,2.18,3.87,28.82,28.82,0,0,1,.46,4.4l-.44,0a18.2,18.2,0,0,1,.54-6,10.32,10.32,0,0,1,3-5.17,9.84,9.84,0,0,1,2.6-1.55,24,24,0,0,0,2.63-1.33,14.68,14.68,0,0,0,2.36-1.72,5.48,5.48,0,0,0,1.64-2.28L26,5.71l.1.87a31,31,0,0,1,.1,6.09,21.93,21.93,0,0,1-1.26,6,12.22,12.22,0,0,1-3.35,5,11,11,0,0,1-5.48,2.46,10.94,10.94,0,0,0,5.38-2.57,12.56,12.56,0,0,0,3.2-5,21.81,21.81,0,0,0,1.2-5.88,31.06,31.06,0,0,0-.15-6h.36a5.82,5.82,0,0,1-1.73,2.51A15,15,0,0,1,22,10.94a24.75,24.75,0,0,1-2.66,1.37,9.22,9.22,0,0,0-2.47,1.5,10.18,10.18,0,0,0-2.88,5,17.44,17.44,0,0,0-.57,5.8l-.44,0a28.25,28.25,0,0,0-.42-4.35,6.37,6.37,0,0,0-2-3.68,6.54,6.54,0,0,0-1.87-1,18.46,18.46,0,0,0-2.07-.66,31.56,31.56,0,0,0-4.3-.79l.13-.24a3.82,3.82,0,0,1,.56,2c0,.68,0,1.35.1,2a9.88,9.88,0,0,0,1.1,3.83A7.34,7.34,0,0,0,7,24.51,16.09,16.09,0,0,0,10.69,26.12Z"/><path d="M4.77,16.66a11.79,11.79,0,0,1,4.05,3.61,16.25,16.25,0,0,1,1.38,2.35c.21.41.36.84.54,1.26s.28.86.42,1.29a21.8,21.8,0,0,0-2.55-4.76,16.16,16.16,0,0,0-1.74-2A12.36,12.36,0,0,0,4.77,16.66Z"/><path d="M25,9.92A17.36,17.36,0,0,1,23,13.8a14.22,14.22,0,0,1-1.39,1.71A18.74,18.74,0,0,1,19.91,17a12.88,12.88,0,0,0-2.77,3.33,15,15,0,0,0-1.6,4A12.46,12.46,0,0,1,17,20.22a12.72,12.72,0,0,1,2.75-3.44,20.87,20.87,0,0,0,1.66-1.41,14.91,14.91,0,0,0,1.4-1.67A22.54,22.54,0,0,0,25,9.92Z"/><circle class="cls-1" cx="15.13" cy="15.13" r="15"/></g></g></svg>