<svg id="Layer_1" data-name="Layer 1" xmlns="http://www.w3.org/2000/svg" viewBox="0 0 682.7 402.06"><defs><style>.cls-1{fill:#9ccc66;}.cls-2{fill:#fff;}.cls-3{fill:none;stroke:#9ccc66;stroke-width:18.15px;}</style></defs><title>organic</title><path class="cls-1" d="M850.22,323.28c-73.27-73.27-153.55,7-153.55,7l-13.36,13.37L670,330.28s-80.28-80.27-153.55-7c0,0-73.27,73.27,7,153.54,0,0,110.35,110.34,159.9,107.78,49.55,2.56,159.91-107.78,159.91-107.78,80.27-80.27,7-153.54,7-153.54Z" transform="translate(-341.96 -182.58)"/><path class="cls-1" d="M644,287.94s-33.09-59.07,79.92-83.14c0,0,15-.31,36.22-22.22,0,0,33.37,138-104.79,118.73,0,0,21.41-46.37,81.28-73.94,0,0-72.81,16.31-92.63,60.57" transform="translate(-341.96 -182.58)"/><polygon class="cls-2" points="9.07 190.68 9.07 322.97 673.62 322.97 673.62 190.68 9.07 190.68 9.07 190.68"/><polygon class="cls-3" points="9.07 190.68 9.07 322.97 673.62 322.97 673.62 190.68 9.07 190.68 9.07 190.68"/><path class="cls-1" d="M455.82,479.27c23.52,0,40.62-17.75,40.62-39.42v-.22c0-21.67-16.88-39.2-40.4-39.2s-40.62,17.75-40.62,39.42v.22c0,21.67,16.88,39.2,40.4,39.2Zm.22-15.46c-13.5,0-23.09-10.89-23.09-24v-.22c0-13.07,9.37-23.74,22.87-23.74s23.09,10.89,23.09,24v.22c0,13.07-9.37,23.74-22.87,23.74ZM511.36,478h16.77v-24.4h13.18L557.64,478h19.6l-18.62-27.23c9.69-3.59,16.34-11.32,16.34-23.63v-.22c0-7.19-2.29-13.18-6.54-17.42-5-5-12.52-7.73-22.21-7.73H511.36V478Zm16.77-39.21V416.87h16.66c8.17,0,13.18,3.71,13.18,10.89V428c0,6.43-4.68,10.78-12.85,10.78Zm98.66,40.51a49.48,49.48,0,0,0,32.56-12.08V434.08h-33.1v14.48h16.88v10.89c-4.25,3.05-9.69,4.58-15.79,4.58-13.51,0-23.09-10.24-23.09-24.18v-.22c0-13,9.69-23.74,21.89-23.74,8.82,0,14.05,2.83,19.93,7.74l10.56-12.75c-8-6.75-16.23-10.45-30-10.45-23.08,0-40,17.75-40,39.42v.22c0,22.54,16.33,39.2,40.07,39.2Zm42.15-1.3H686l7-17.1h32.24l7,17.1h17.53l-32.67-76.78H701.61L668.94,478Zm30-31.91,10.13-24.72,10.13,24.72ZM761.5,478h16.55V429.5L815,478h14.27V401.74H812.68v46.93L777,401.74H761.5V478Zm86.79,0h16.77V401.74H848.29V478Zm71.55,1.3c14.7,0,23.41-5.23,31.26-13.61l-10.68-10.78c-6,5.44-11.32,8.93-20,8.93-13.07,0-22.11-10.89-22.11-24v-.22c0-13.07,9.26-23.74,22.11-23.74,7.62,0,13.61,3.27,19.49,8.61l10.67-12.31c-7.08-7-15.68-11.76-30.06-11.76-23.41,0-39.74,17.75-39.74,39.42v.22c0,21.89,16.66,39.2,39.09,39.2Z" transform="translate(-341.96 -182.58)"/></svg>