<svg xmlns="http://www.w3.org/2000/svg" viewBox="0 0 70.5 70.5"><defs><style>.cls-1{fill:none;stroke:#000;stroke-miterlimit:10;stroke-width:0.5px;}</style></defs><title>organic-70px</title><g id="Layer_2" data-name="Layer 2"><g id="vegan"><path d="M25.39,59.68a35,35,0,0,1-8.33-3.44,16.3,16.3,0,0,1-6.46-6.19A21.66,21.66,0,0,1,8,41.42c-.14-1.51-.14-3-.23-4.51A7.84,7.84,0,0,0,6.61,32.7l-.2-.27.33,0a73,73,0,0,1,9.65,1.72,40.91,40.91,0,0,1,4.68,1.47A14.79,14.79,0,0,1,25.39,38a14.89,14.89,0,0,1,4.74,8.49,62.94,62.94,0,0,1,1,9.74l-.43,0A40.36,40.36,0,0,1,31.9,43.11a22.84,22.84,0,0,1,6.67-11.34,20.74,20.74,0,0,1,5.69-3.41,55.66,55.66,0,0,0,5.86-3,32.35,32.35,0,0,0,5.28-3.86,17.28,17.28,0,0,0,2.21-2.4,8.55,8.55,0,0,0,1.5-2.82l.24-.94.12.94a68.45,68.45,0,0,1,.25,13.5A50.08,50.08,0,0,1,57,43,27.42,27.42,0,0,1,49.6,54.16a23.9,23.9,0,0,1-12.12,5.52,23.79,23.79,0,0,0,12-5.63,27.77,27.77,0,0,0,7.22-11.16,49.47,49.47,0,0,0,2.69-13.13,69.06,69.06,0,0,0-.3-13.41h.36a8.87,8.87,0,0,1-1.55,3,19.43,19.43,0,0,1-2.25,2.46,33.08,33.08,0,0,1-5.34,3.93,56.42,56.42,0,0,1-5.89,3,20.49,20.49,0,0,0-5.57,3.36,20.06,20.06,0,0,0-4,5.07,28.11,28.11,0,0,0-2.45,6.05,39.84,39.84,0,0,0-1.25,13l-.43,0a62.5,62.5,0,0,0-1-9.69,14.39,14.39,0,0,0-4.58-8.29A14.07,14.07,0,0,0,20.94,36a41.55,41.55,0,0,0-4.63-1.48,72.78,72.78,0,0,0-9.59-1.74l.13-.23a8.14,8.14,0,0,1,1.22,4.36c.09,1.51.08,3,.22,4.5a21.72,21.72,0,0,0,2.5,8.55,16.22,16.22,0,0,0,6.33,6.21A35.35,35.35,0,0,0,25.39,59.68Z"/><path d="M12.25,38.66a21.5,21.5,0,0,1,4.85,3.58,34.55,34.55,0,0,1,4,4.53A37.82,37.82,0,0,1,24.19,52c.49.89.83,1.84,1.25,2.76s.66,1.9,1,2.85A52.16,52.16,0,0,0,24,52.05a37.19,37.19,0,0,0-3.13-5.13A34.15,34.15,0,0,0,17,42.36,25.3,25.3,0,0,0,12.25,38.66Z"/><path d="M57.19,23.68a41.69,41.69,0,0,1-4.64,8.56A32,32,0,0,1,49.46,36a44.5,44.5,0,0,1-3.68,3.21,28.3,28.3,0,0,0-6.14,7.46,32.6,32.6,0,0,0-2.08,4.39,26.89,26.89,0,0,0-1.4,4.66,29.33,29.33,0,0,1,3.34-9.13A28.3,28.3,0,0,1,45.62,39a43.21,43.21,0,0,0,3.69-3.16,32.53,32.53,0,0,0,3.11-3.73A43,43,0,0,0,55,28,44.23,44.23,0,0,0,57.19,23.68Z"/><circle class="cls-1" cx="35.25" cy="35.25" r="35"/></g></g></svg>