<svg xmlns="http://www.w3.org/2000/svg" viewBox="0 0 70.5 70.5"><defs><style>.cls-1,.cls-3,.cls-5{fill:#fff;}.cls-1,.cls-2,.cls-3,.cls-4{stroke:#000;stroke-miterlimit:10;}.cls-1,.cls-4{stroke-width:0.5px;}.cls-3{stroke-width:0.25px;}.cls-4{fill:none;}</style></defs><title>soya free-70px</title><g id="Layer_2" data-name="Layer 2"><g id="soya_free" data-name="soya free"><path class="cls-1" d="M10.75,17.48c-.92.25,11.62-1.88,18.71,2.64,6.14,3.9,6.47,7.56,12.89,8.38,9,1.15,18.58,12.54,20.16,19.7,0,0-7.08,1.94-18.6-4-10.3-5.35-9.3,2.75-19-9.61C18.78,29.53,16.41,34.88,10.75,17.48Z"/><path class="cls-2" d="M18.19,23.73a1.15,1.15,0,0,1,1.24-1.58c2.76.43,7.78,1.69,6.88,5.16C25.24,31.42,19.86,27.6,18.19,23.73Z"/><path class="cls-2" d="M32.46,34.25c-1.31-1.76.79-4.15,3.09-3.54,3.21.84,8.47,3.69,5.48,5.47C38.34,37.79,35,37.65,32.46,34.25Z"/><path class="cls-2" d="M46.48,41.47a1.82,1.82,0,0,1,2-2.79c2.22.72,6.43,3.36,4.59,4.9S48.32,44.09,46.48,41.47Z"/><path class="cls-3" d="M29.34,63.16a1.73,1.73,0,0,0-1.24-3c-2.21.17-5.94,1.44-5.35,3.48S27,65.15,29.34,63.16Z"/><path d="M28.53,63.42a.23.23,0,0,0-.27-.34c-.28.1-.79.47-.55.65S28.32,63.76,28.53,63.42Z"/><path class="cls-3" d="M35.26,53.83c1.05-1,.56-2.79-.72-2.56-1.7.31-4.65,1.69-4.35,3.43S33.35,55.74,35.26,53.83Z"/><path d="M33.15,52.33a.23.23,0,0,0-.27-.35c-.28.11-.79.47-.55.66S32.94,52.67,33.15,52.33Z"/><path class="cls-3" d="M55,57.54c1.33-.66,1.43-2.47.14-2.66-1.71-.25-5,.12-5.22,1.86S52.62,58.74,55,57.54Z"/><path d="M53.52,55.44a.23.23,0,0,0-.15-.41c-.3,0-.9.19-.73.44S53.21,55.69,53.52,55.44Z"/><path class="cls-3" d="M40.59,64.24c1.26.15,2.18-1.22,1.33-2-1.11-1.07-3.62-2.42-4.63-1.19S38.29,64,40.59,64.24Z"/><path d="M40.47,61.81a.22.22,0,0,0,.09-.4c-.22-.14-.74-.31-.74,0S40.13,61.85,40.47,61.81Z"/><path class="cls-3" d="M44.4,56.56c1.23.09,2.17-1.09,1.37-1.74-1.06-.85-3.48-1.9-4.5-.85S42.16,56.39,44.4,56.56Z"/><path d="M44.47,54.81a.22.22,0,0,0,.09-.4c-.22-.14-.74-.31-.74,0S44.13,54.85,44.47,54.81Z"/><circle class="cls-4" cx="35.25" cy="35.25" r="35"/><rect x="4.44" y="36.06" width="64.56" height="1.61" transform="translate(-15.31 36.76) rotate(-45)"/><path class="cls-5" d="M59,14l.61.61L14.46,59.73l-.61-.61L59,14m0-1.06L12.79,59.12l1.67,1.67L60.64,14.61,59,12.94Z"/></g></g></svg>