<svg xmlns="http://www.w3.org/2000/svg" viewBox="0 0 30.5 30.5"><defs><style>.cls-1,.cls-3,.cls-5{fill:#fff;}.cls-1,.cls-2,.cls-3,.cls-4{stroke:#000;stroke-miterlimit:10;}.cls-1,.cls-4{stroke-width:0.5px;}.cls-3{stroke-width:0.25px;}.cls-4{fill:none;}</style></defs><title>soya-30px</title><g id="Layer_2" data-name="Layer 2"><g id="soya_free" data-name="soya free"><path class="cls-1" d="M4.57,7.51C6,8,9.64,6.69,12.73,8.66c2.67,1.7,2.82,3.29,5.61,3.65,3.91.5,8.1,5.46,8.79,8.58,0,0-3.09.85-8.11-1.76-4.49-2.33-4,1.2-8.29-4.19C8.07,12.76,7,15.09,4.57,7.51Z"/><path class="cls-2" d="M7.82,10.23a.5.5,0,0,1,.54-.69c1.2.19,3.39.74,3,2.25C10.89,13.58,8.55,11.92,7.82,10.23Z"/><path class="cls-2" d="M14,14.81c-.58-.76.34-1.8,1.34-1.54,1.4.37,3.69,1.61,2.39,2.39A2.66,2.66,0,0,1,14,14.81Z"/><path class="cls-2" d="M20.14,18A.8.8,0,0,1,21,16.74c1,.32,2.8,1.47,2,2.14S21,19.1,20.14,18Z"/><path class="cls-3" d="M12.67,27.41a.75.75,0,0,0-.53-1.33c-1,.07-2.59.63-2.34,1.52S11.67,28.28,12.67,27.41Z"/><path d="M12.32,27.52a.1.1,0,0,0-.12-.15c-.12.05-.34.21-.24.29S12.23,27.67,12.32,27.52Z"/><path class="cls-3" d="M15.25,23.35c.46-.46.25-1.22-.31-1.12-.74.13-2,.74-1.9,1.49S14.42,24.18,15.25,23.35Z"/><path d="M14.34,22.69a.1.1,0,0,0-.12-.15c-.12.05-.35.21-.24.29S14.24,22.84,14.34,22.69Z"/><path class="cls-3" d="M23.87,25c.58-.28.62-1.07.06-1.16-.75-.11-2.16.05-2.28.81S22.82,25.48,23.87,25Z"/><path d="M23.21,24.05a.1.1,0,0,0-.07-.18c-.12,0-.39.08-.31.19S23.07,24.16,23.21,24.05Z"/><path class="cls-3" d="M17.58,27.88c.55.07.94-.53.58-.88s-1.58-1.06-2-.52S16.57,27.76,17.58,27.88Z"/><path d="M17.53,26.82a.09.09,0,0,0,0-.17c-.09-.06-.32-.14-.32,0A.24.24,0,0,0,17.53,26.82Z"/><path class="cls-3" d="M19.24,24.53c.53,0,.94-.47.59-.75s-1.51-.83-2-.37S18.26,24.46,19.24,24.53Z"/><path d="M19.27,23.77a.09.09,0,0,0,0-.17c-.09-.06-.32-.14-.31,0S19.12,23.79,19.27,23.77Z"/><circle class="cls-4" cx="15.25" cy="15.25" r="15"/><rect x="0.52" y="14.95" width="28.6" height="0.46" transform="translate(-6.39 14.93) rotate(-45)"/><path class="cls-5" d="M24.77,5.09l.14.14-20,20.05-.15-.15,20.05-20m0-.36L4.37,25.13l.5.5,20.4-20.4-.5-.5Z"/></g></g></svg>