<svg id="Layer_1" data-name="Layer 1" xmlns="http://www.w3.org/2000/svg" viewBox="0 0 694.24 444.73"><defs><style>.cls-1{fill:#fff;}.cls-2{fill:none;stroke:#9ccc66;stroke-width:16.5px;}.cls-3{fill:#9ccc66;}</style></defs><title>soya-free</title><polygon class="cls-1" points="8.25 111.89 8.25 316.42 612.38 316.42 612.38 111.89 8.25 111.89 8.25 111.89"/><polygon class="cls-2" points="8.25 111.89 8.25 316.42 612.38 316.42 612.38 111.89 8.25 111.89 8.25 111.89"/><polygon class="cls-1" points="8.25 316.21 8.25 436.48 612.38 436.48 612.38 316.21 8.25 316.21 8.25 316.21"/><polygon class="cls-2" points="8.25 316.21 8.25 436.48 612.38 436.48 612.38 316.21 8.25 316.21 8.25 316.21"/><path class="cls-1" d="M829.83,285.36c1.07-1,18.42,3.08,18.42,3.08s23-30.4,21.55-30.93-53.56-1.88-53.56-1.88,13.09,30.2,13.59,29.73Z" transform="translate(-335.96 -162.42)"/><path class="cls-1" d="M883.64,294.06c2.38,1.55,55.63,26.32,55.63,26.32L986.71,277S910.43,238.94,909,239.37s-25.31,54.69-25.31,54.69Z" transform="translate(-335.96 -162.42)"/><path class="cls-3" d="M1023.62,195.63c-25,3.93-90.11,16.31-122.44,42.49s-32.93,67.06-31.85,82.46L897,298.17l0-35.17,14.22-15.13.22,38.56,30.79-24.93-.89-18.86,12.7-9.28L952.85,253l70.77-57.32Zm-147.71,133c14.86,4.26,54.89,12.2,87.23-14s58-87.4,67.06-111l-70.79,57.32,19.42,2.85-11.72,10.49-18.26-4.79-30.79,24.93,37.67,8.24-19,10.91-33.21-7.41-27.66,22.4Z" transform="translate(-335.96 -162.42)"/><path class="cls-3" d="M856.2,163.17c7,15.58,23.9,57,21,84.94s-25.86,43.29-35,48.34l2.51-23.91,19.89-13L867.93,246,846,260l2.8-26.6,11-6.42.59-10.6-10.63,7.91,6.42-61.14Zm-21,132.53c-7.88-6.85-27.09-26.59-24.17-54.52s28.15-65,38.17-78.76l-6.42,61.15L834,213.62l-1.64,10.49,9.43,8.58L839,259.28,820.51,241l.79,14.74,16.41,16.07-2.51,23.9Z" transform="translate(-335.96 -162.42)"/><path class="cls-3" d="M446.08,458.65l-10.54-2.22a92.8,92.8,0,0,1-19.81-6.52,76.2,76.2,0,0,1-16.59-10.33l13.46-23.95a65,65,0,0,0,20.56,11.29,73.67,73.67,0,0,0,23.94,4q14.2,0,22-4.82T487,412.45v-.1q0-6.15-3.49-9.75a20.84,20.84,0,0,0-9.12-5.3A110.38,110.38,0,0,0,460,394.23a1.85,1.85,0,0,0-.58-.11,1.81,1.81,0,0,1-.58-.1l-2.33-.32a143.55,143.55,0,0,1-25.65-6.09,37.81,37.81,0,0,1-17.27-12.82q-7.1-9.17-7.1-26v-.1q0-14.94,6.68-25.54T432.52,307q12.72-5.57,30.73-5.56a78.35,78.35,0,0,1,16.9,1.91,91.9,91.9,0,0,1,16.9,5.51,94.4,94.4,0,0,1,15.68,8.69L500.44,342.1a77.85,77.85,0,0,0-18.6-9.54,56.25,56.25,0,0,0-18.59-3.39q-13.35,0-20.66,4.4t-7.32,12.34V346q0,6.68,3.82,10.54a22.67,22.67,0,0,0,9.43,5.67A149.64,149.64,0,0,0,464.31,366a5,5,0,0,0,.84.16,8,8,0,0,1,.85.16,10.92,10.92,0,0,1,1.22.27c.39.1.8.19,1.22.26a128.85,128.85,0,0,1,24.42,6.94A38,38,0,0,1,509.23,387q6.57,9.06,6.57,24.74v.21q0,14.73-6.88,25.22t-20.08,16q-13.2,5.5-31.74,5.51Z" transform="translate(-335.96 -162.42)"/><path class="cls-3" d="M561.63,451.6a48.92,48.92,0,0,1-19.76-19.92q-7-12.87-7-29.82V358.2q0-16.95,7-29.82a49,49,0,0,1,19.76-19.92q12.76-7.05,29.51-7t29.51,7a49,49,0,0,1,19.76,19.92q7,12.87,7,29.82v43.66q0,17-7,29.82a48.92,48.92,0,0,1-19.76,19.92q-12.78,7-29.51,7T561.63,451.6Zm43.28-25.32a22.78,22.78,0,0,0,9.17-9.48,30.13,30.13,0,0,0,3.23-14.2V357.46a30.13,30.13,0,0,0-3.23-14.2,22.9,22.9,0,0,0-9.17-9.48,30.08,30.08,0,0,0-27.55,0,22.88,22.88,0,0,0-9.16,9.48,30,30,0,0,0-3.23,14.2V402.6a30,30,0,0,0,3.23,14.2,22.76,22.76,0,0,0,9.16,9.48,30.08,30.08,0,0,0,27.55,0Z" transform="translate(-335.96 -162.42)"/><path class="cls-3" d="M730.26,397.62v59.44h-29V397.62L655.88,303h30.41l29.45,66.33L745.2,303h30.41Z" transform="translate(-335.96 -162.42)"/><path class="cls-3" d="M821.81,303h18.43l58.91,154.06H867.9L831,351.85,794.15,457.06H762.89ZM791.18,404.4h81.06v28H791.18Z" transform="translate(-335.96 -162.42)"/><path class="cls-3" d="M506.39,494H523v88H506.39Zm6.06,0h51.77v16H512.45Zm0,37.12h45.11v16H512.45Z" transform="translate(-335.96 -162.42)"/><path class="cls-3" d="M576.93,493.94h16.59V582H576.93Zm6.6,36.69h30.64a8,8,0,0,0,4.48-1.27,8.32,8.32,0,0,0,3-3.63,14,14,0,0,0,1.12-5.45,13.28,13.28,0,0,0-1.06-5.45,8.21,8.21,0,0,0-3-3.63,8.08,8.08,0,0,0-4.54-1.28H583.53v-16h32a24.6,24.6,0,0,1,12.78,3.27,22.15,22.15,0,0,1,8.53,9.23,33.1,33.1,0,0,1,0,27.67,22.06,22.06,0,0,1-8.56,9.24,24.64,24.64,0,0,1-12.75,3.27h-32Zm18.53,13.26,17.74-2.78L643.53,582h-20.1Z" transform="translate(-335.96 -162.42)"/><path class="cls-3" d="M657.76,494h16.59v88H657.76Zm6,0h53v16h-53Zm0,36.33h46.31v16H663.76Zm0,35.72h53v16h-53Z" transform="translate(-335.96 -162.42)"/><path class="cls-3" d="M731.87,494h16.59v88H731.87Zm6,0h53v16h-53Zm0,36.33h46.31v16H737.87Zm0,35.72h53v16h-53Z" transform="translate(-335.96 -162.42)"/></svg>