<svg id="Layer_1" data-name="Layer 1" xmlns="http://www.w3.org/2000/svg" viewBox="0 0 363.92 312.67"><defs><style>.cls-1{fill:#9ccc66;}</style></defs><title>vegan</title><path class="cls-1" d="M529.61,540.37h13.46l28-69.79H554.65l-18.11,48.8-18.12-48.8H501.59l28,69.79Zm52.17-.49h52.77V526.31H596.93V511.76H629.6V498.2H596.93V484.14h37.12V470.58H581.78v69.3Zm99.69,1.18a45,45,0,0,0,29.6-11V500H681v13.17h15.34v9.9A24.33,24.33,0,0,1,682,527.2c-12.28,0-21-9.3-21-22V505c0-11.78,8.81-21.58,19.9-21.58,8,0,12.77,2.57,18.11,7l9.61-11.58c-7.23-6.14-14.75-9.5-27.23-9.5-21,0-36.33,16.13-36.33,35.84v.19c0,20.5,14.85,35.64,36.43,35.64Zm38.31-1.18h15.55l6.33-15.55H771l6.33,15.55h15.94l-29.7-69.8H749.48l-29.7,69.8Zm27.33-29,9.2-22.47,9.21,22.47Zm56.82,29H819V495.82l33.56,44.06h13v-69.3h-15v42.66L818,470.58H803.93v69.3Z" transform="translate(-501.59 -228.39)"/><path class="cls-1" d="M581.81,420S521.66,312.56,727.14,268.79c0,0,27.27-.57,65.85-40.4,0,0,60.67,250.85-190.53,215.87,0,0,38.93-84.31,147.79-134.44,0,0-132.38,29.65-168.44,110.13" transform="translate(-501.59 -228.39)"/></svg>