<svg xmlns="http://www.w3.org/2000/svg" viewBox="0 0 70.5 70.5"><defs><style>.cls-1,.cls-2,.cls-3,.cls-4,.cls-5{fill:none;stroke:#000;stroke-miterlimit:10;}.cls-1{stroke-width:0.4px;}.cls-2{stroke-width:0.5px;}.cls-3{stroke-width:0.25px;}.cls-4{stroke-width:0.1px;}.cls-5{stroke-width:0.35px;}</style></defs><title>vegan-70px</title><g id="Layer_2" data-name="Layer 2"><g id="vegan"><path class="cls-1" d="M11.08,40.06S5.53,22.79,15.4,21.56,26.49,29,27.11,30.81s0,9.86-4.93,14.18"/><path d="M9.85,30.19c.83,1.78,1.58,3.58,2.38,5.37s1.53,3.6,2.24,5.42c-.83-1.77-1.58-3.58-2.38-5.36S10.56,32,9.85,30.19Z"/><path d="M11.08,26.49c1.29,2.75,2.51,5.53,3.77,8.3s2.45,5.55,3.63,8.35c-1.29-2.75-2.51-5.53-3.77-8.29S12.25,29.29,11.08,26.49Z"/><path d="M14.12,23.15c1.5,3.36,2.92,6.76,4.38,10.14s2.87,6.78,4.25,10.2c-1.5-3.37-2.92-6.76-4.39-10.14S15.5,26.56,14.12,23.15Z"/><path d="M17.25,22.8c1.39,2.84,2.71,5.73,4.07,8.59s2.66,5.76,3.94,8.67c-1.4-2.85-2.72-5.74-4.08-8.6S18.52,25.7,17.25,22.8Z"/><path d="M27.11,34.51c-1.19-1.92-2.3-3.88-3.46-5.82s-2.25-3.91-3.32-5.89c1.18,1.91,2.3,3.88,3.45,5.81S26,32.52,27.11,34.51Z"/><path d="M18.12,22.73c-1.29,1.18-2.64,2.29-4,3.45s-2.67,2.25-4.05,3.33c1.29-1.18,2.64-2.3,4-3.45S16.74,23.81,18.12,22.73Z"/><path d="M23.41,24.64c-1,.9-2.1,1.72-3.17,2.55L17,29.67c-2.18,1.62-4.34,3.26-6.55,4.84,2.13-1.68,4.31-3.3,6.46-5l3.25-2.44C21.25,26.28,22.35,25.49,23.41,24.64Z"/><path d="M25.26,29c-2.23,1.59-4.49,3.12-6.74,4.69S14,36.72,11.7,38.21c2.22-1.6,4.49-3.13,6.74-4.69S23,30.45,25.26,29Z"/><path d="M25.88,32.66a7.41,7.41,0,0,0-1.37.91l-1.32,1-2.59,2-5.2,4.06c1.67-1.43,3.39-2.8,5.11-4.18l2.62-2A18,18,0,0,1,25.88,32.66Z"/><path d="M25.88,36.36c-1.09,1.07-2.23,2.09-3.34,3.13s-2.27,2-3.45,3c1.09-1.07,2.23-2.09,3.34-3.14S24.7,37.34,25.88,36.36Z"/><path class="cls-2" d="M10.16,39.75,47.45,55.47c.1.05-7.4,11.09-23.42,6.78C13.48,59.41,8.45,49.19,10.16,39.75Z"/><path class="cls-3" d="M46.53,54.54s11.71-8.63,12.94-11.09a3.77,3.77,0,0,0-.81-4.73,2.19,2.19,0,0,0-2.73,0c-3,2.3-11.36,9.18-11.87,15.24"/><path class="cls-3" d="M40.36,52.08s11.1-16.65,11.71-17.26,5-.42,4.67,3.49"/><path class="cls-4" d="M54.54,34.82c0-.62,3.08-3.7,3.7-4.32,1.23-1.23,1.23,0,1.23,0l-4.31,4.32,3.7-3.09s1.23,0,.61.62c-.11.11-.29.28-.53.48-1.07.93-3.14,2.58-3.17,2.6h0a29.8,29.8,0,0,0,4.32-1.85c.62-.61,0-1.23-.62-1.23"/><path class="cls-4" d="M58.24,38.51c0-.61,3.08-3.69,3.7-4.31,1.23-1.23,1.23,0,1.23,0l-4.31,4.31,3.69-3.08s1.24,0,.62.62c-.11.11-.3.28-.53.48-1.08.93-3.14,2.58-3.17,2.6h0a30.77,30.77,0,0,0,4.32-1.85c.61-.61,0-1.23-.62-1.23"/><path class="cls-5" d="M26.8,36.67s5.55-2.47,7.4,1.23,1.23,5.55,0,7.4-4.32,2.46-4.32,2.46"/><path class="cls-5" d="M34.51,38.82s11.11-3.19,9.86,5.55-9.86,5.55-9.86,5.55"/><path class="cls-5" d="M32.66,33.27s.48-8.26,7.5-6.22a5.57,5.57,0,0,1,4,4.55c.36,2.73-.5,6.24-7.19,6.61C37,38.21,32.66,38.82,32.66,33.27Z"/><path class="cls-3" d="M14.62,21.57A15.26,15.26,0,0,0,9,20H6.46a8.59,8.59,0,0,1,8.16-.51s-2-3.57-5.1-4.08c0,0,1.53-1,5.1,1.53a7.47,7.47,0,0,1,2.55-7.14s.51,5.61-1,7.14a6.4,6.4,0,0,1,5.1-2S16.66,18,16.15,19c0,0,1-1,5.1-1,0,0-5.1,2-5.1,3.57"/><path d="M12,50.23a21.94,21.94,0,0,0,2,2.9,30.4,30.4,0,0,0,2.3,2.64,23.16,23.16,0,0,0,5.6,4.14,22.68,22.68,0,0,0,3.19,1.4,20,20,0,0,0,3.41.75,24,24,0,0,0,7-.12l-1.74.26a11.41,11.41,0,0,1-1.74.18H30.19a13.08,13.08,0,0,1-1.76-.16A21.24,21.24,0,0,1,25,61.51a22.64,22.64,0,0,1-3.25-1.38,22.71,22.71,0,0,1-5.59-4.25A23.62,23.62,0,0,1,12,50.23Z"/><path d="M42.52,31.43A5.43,5.43,0,0,0,40.36,31a4.18,4.18,0,0,0-2.09.55l-.08,0-.07-.07a6.13,6.13,0,0,0-1.65-1.11,3.07,3.07,0,0,0-2-.21,2.9,2.9,0,0,1,2,0,5.65,5.65,0,0,1,1.75,1.11l-.15,0a3.57,3.57,0,0,1,1.08-.42,4,4,0,0,1,1.14-.12,5.25,5.25,0,0,1,1.12.19A5.39,5.39,0,0,1,42.52,31.43Z"/><path d="M35.74,34.51a5.37,5.37,0,0,1,.79-1.9,3.35,3.35,0,0,1,1.64-1.3l-.08.13a3.8,3.8,0,0,1,.21-1.77,2.42,2.42,0,0,1,1.14-1.33,3.26,3.26,0,0,0-1.12,3.07v.1l-.09,0a3.38,3.38,0,0,0-1.54,1.19A6.79,6.79,0,0,0,35.74,34.51Z"/><path d="M40.67,34.51c-.17-.32-.35-.64-.53-.95s-.37-.62-.58-.9a5.31,5.31,0,0,0-.68-.81,3.22,3.22,0,0,0-.88-.61,2.85,2.85,0,0,1,1.76,1.28A5.9,5.9,0,0,1,40.67,34.51Z"/><path d="M33.58,41.11a5.12,5.12,0,0,0-2-.41,4,4,0,0,0-1.95.51l-.09.06-.07-.07a5.48,5.48,0,0,0-1.55-1A2.9,2.9,0,0,0,26.05,40,2.63,2.63,0,0,1,28,40a4.85,4.85,0,0,1,1.65,1l-.15,0a3.86,3.86,0,0,1,2.09-.51,4.2,4.2,0,0,1,1.06.18A5.61,5.61,0,0,1,33.58,41.11Z"/><path d="M27.21,44A5.19,5.19,0,0,1,28,42.22,3.15,3.15,0,0,1,29.49,41l-.08.13a3.64,3.64,0,0,1,.2-1.67,2.2,2.2,0,0,1,1.08-1.24,3,3,0,0,0-1,2.88v.09l-.09,0a3.11,3.11,0,0,0-1.45,1.11A6.75,6.75,0,0,0,27.21,44Z"/><path d="M31.84,44c-.16-.3-.33-.6-.5-.89s-.35-.58-.55-.84a4.76,4.76,0,0,0-.64-.77,3,3,0,0,0-.81-.57A2.69,2.69,0,0,1,31,42.13,5.51,5.51,0,0,1,31.84,44Z"/><path d="M42.26,44.81a3.8,3.8,0,0,0-1.4-.25,2.78,2.78,0,0,0-1.31.35l-.08.05-.07-.06A2.71,2.71,0,0,0,37.11,44a1.79,1.79,0,0,1,1.31,0,3.51,3.51,0,0,1,1.15.71h-.16a2.63,2.63,0,0,1,1.46-.35A2.93,2.93,0,0,1,42.26,44.81Z"/><path d="M37.9,46.79a3.15,3.15,0,0,1,.48-1.24,2.08,2.08,0,0,1,1.06-.85l-.08.13a2.53,2.53,0,0,1,.15-1.16,1.53,1.53,0,0,1,.76-.84,2.14,2.14,0,0,0-.67,2v.1l-.09,0a2.21,2.21,0,0,0-1,.74A4.93,4.93,0,0,0,37.9,46.79Z"/><path d="M41.07,46.79c-.27-.39-.48-.8-.76-1.16a3,3,0,0,0-.42-.52,2.24,2.24,0,0,0-.54-.42,1.73,1.73,0,0,1,1.17.8A3.41,3.41,0,0,1,41.07,46.79Z"/><path d="M14.06,48c0,.07.14.12.32.12s.32-.05.32-.12-.15-.11-.32-.11S14.06,48,14.06,48Z"/><path d="M14.19,46.09c0,.06.14.11.32.11s.32-.05.32-.11-.15-.12-.32-.12S14.19,46,14.19,46.09Z"/><path d="M11.34,45.68c.07,0,.13-.09.13-.2s-.06-.2-.13-.2-.13.09-.13.2S11.27,45.68,11.34,45.68Z"/><path d="M18.46,48c0,.07.14.12.32.12s.32-.05.32-.12-.14-.11-.32-.11S18.46,48,18.46,48Z"/><path d="M22.48,53.62c.07,0,.13-.09.13-.2s-.06-.21-.13-.21-.13.1-.13.21S22.41,53.62,22.48,53.62Z"/><path d="M18.34,46.14c.07,0,.12-.09.12-.2s-.05-.2-.12-.2-.13.09-.13.2S18.27,46.14,18.34,46.14Z"/><path d="M15.7,50.07c.07,0,.13-.09.13-.2s-.06-.2-.13-.2-.13.09-.13.2S15.63,50.07,15.7,50.07Z"/><path d="M19,52.88c0-.11-.06-.2-.13-.2s-.12.09-.12.2.05.2.12.2S19,53,19,52.88Z"/><path d="M12.74,43.37c.08,0,.13-.09.13-.2s0-.2-.13-.2-.12.09-.12.2S12.67,43.37,12.74,43.37Z"/><path d="M28.41,50.21c-.07,0-.12.09-.12.2s.05.2.12.2.13-.09.13-.2S28.49,50.21,28.41,50.21Z"/><path d="M22,49.34c.08,0,.13,0,.13-.08s-.05-.09-.13-.09-.12,0-.12.09S22,49.34,22,49.34Z"/><path d="M33.79,52c-.07,0-.13.09-.13.2s.06.21.13.21.13-.09.13-.21S33.86,52,33.79,52Z"/><path d="M28.9,56.6c-.07,0-.13.09-.13.21s.06.2.13.2.13-.09.13-.2S29,56.6,28.9,56.6Z"/><path d="M38.94,55.27c0-.12-.06-.21-.13-.21s-.13.09-.13.21.06.2.13.2S38.94,55.38,38.94,55.27Z"/><path d="M34.36,57.28c.07,0,.13,0,.13-.09s-.06-.08-.13-.08-.12,0-.12.08S34.29,57.28,34.36,57.28Z"/><path d="M22,47c.08,0,.13,0,.13-.08s-.05-.09-.13-.09-.12,0-.12.09S22,47,22,47Z"/><path d="M24,52.56c-.07,0-.13,0-.13.09s.06.08.13.08.13,0,.13-.08S24,52.56,24,52.56Z"/><path d="M26.44,53.87c-.07,0-.13,0-.13.09s.06.08.13.08.12,0,.12-.08S26.51,53.87,26.44,53.87Z"/><path d="M33.22,54.33c-.07,0-.13,0-.13.09s.06.08.13.08.12,0,.12-.08S33.29,54.33,33.22,54.33Z"/><path d="M27.14,52.81c.07,0,.13,0,.13-.09s-.06-.08-.13-.08-.13,0-.13.08S27.07,52.81,27.14,52.81Z"/><path d="M25.16,59.34c-.07,0-.13,0-.13.09s.06.08.13.08.13,0,.13-.08S25.23,59.34,25.16,59.34Z"/><path d="M29.69,52.81c.07,0,.13,0,.13-.09s-.06-.08-.13-.08-.13,0-.13.08S29.62,52.81,29.69,52.81Z"/><path d="M27.05,49.09c-.07,0-.13,0-.13.09s.06.09.13.09.13,0,.13-.09S27.12,49.09,27.05,49.09Z"/><path d="M24.59,49.17c-.07,0-.13,0-.13.09s.06.08.13.08.12,0,.12-.08S24.66,49.17,24.59,49.17Z"/><path d="M33.17,58.3c-.07,0-.12.09-.12.2s.05.21.12.21.13-.1.13-.21S33.24,58.3,33.17,58.3Z"/><path d="M12.57,49c-.1,0-.19,0-.19.09s.09.09.19.09.19,0,.19-.09S12.68,49,12.57,49Z"/><path d="M15.65,52.64c-.1,0-.19,0-.19.08s.09.09.19.09.2,0,.2-.09S15.76,52.64,15.65,52.64Z"/><path d="M18.16,55.1c-.1,0-.19,0-.19.09s.09.09.19.09.19,0,.19-.09S18.27,55.1,18.16,55.1Z"/><path d="M20.06,50.86c-.11,0-.2,0-.2.09s.09.09.2.09.19,0,.19-.09S20.16,50.86,20.06,50.86Z"/><path d="M25.6,57.49c-.1,0-.19,0-.19.09s.09.08.19.08.2,0,.2-.08S25.71,57.49,25.6,57.49Z"/><path d="M36.74,58.72c-.1,0-.19,0-.19.09s.09.09.19.09.19,0,.19-.09S36.85,58.72,36.74,58.72Z"/><path d="M30,60c-.1,0-.19,0-.19.09s.09.09.19.09.19,0,.19-.09S30.07,60,30,60Z"/><path d="M19.48,55c-.1,0-.19,0-.19.08s.09.09.19.09.19,0,.19-.09S19.59,55,19.48,55Z"/><path d="M23.8,51.1c-.11,0-.19,0-.19.08s.08.09.19.09.19,0,.19-.09S23.9,51.1,23.8,51.1Z"/><path d="M32.07,61.19c-.11,0-.19,0-.19.09s.08.08.19.08.19,0,.19-.08S32.18,61.19,32.07,61.19Z"/><path d="M30.92,56.87c-.1,0-.19,0-.19.09s.09.09.19.09.2,0,.2-.09S31,56.87,30.92,56.87Z"/><path d="M28.73,54.64c-.11,0-.19,0-.19.09s.08.08.19.08.19,0,.19-.08S28.84,54.64,28.73,54.64Z"/><path d="M42.33,57.65c-.1,0-.19,0-.19.08s.09.09.19.09.2,0,.2-.09S42.44,57.65,42.33,57.65Z"/><path d="M36.83,53.18c-.11,0-.19,0-.19.08s.08.09.19.09.19,0,.19-.09S36.94,53.18,36.83,53.18Z"/><path d="M37.58,56.1c-.11,0-.2,0-.2.09s.09.09.2.09.19,0,.19-.09S37.68,56.1,37.58,56.1Z"/><path d="M31.41,52.87c-.1,0-.19,0-.19.08s.09.09.19.09.19,0,.19-.09S31.52,52.87,31.41,52.87Z"/><path d="M34.94,55c-.11,0-.19,0-.19.08s.08.09.19.09.19,0,.19-.09S35,55,34.94,55Z"/><path d="M22,56.1c-.1,0-.19,0-.19.09s.09.09.19.09.2,0,.2-.09S22.14,56.1,22,56.1Z"/><path d="M50.43,37.12c.23.05.46.06.69.12a4,4,0,0,1,.66.23,2,2,0,0,1,.91,1,2.52,2.52,0,0,0-1-.91A9.69,9.69,0,0,0,50.43,37.12Z"/><path d="M48.68,39.44a1.94,1.94,0,0,1,1.14.3,2,2,0,0,1,.71.93,2.55,2.55,0,0,0-.8-.8A2.44,2.44,0,0,0,48.68,39.44Z"/><path d="M47.45,41.91a1.82,1.82,0,0,1,1.13.3,1.94,1.94,0,0,1,.72.93,2.69,2.69,0,0,0-.8-.81A2.55,2.55,0,0,0,47.45,41.91Z"/><path d="M54.85,39.44a3.43,3.43,0,0,1,2.14.83,5,5,0,0,1,.75.9,4.53,4.53,0,0,1,.5,1,5.55,5.55,0,0,0-1.35-1.82A3.86,3.86,0,0,0,54.85,39.44Z"/><path d="M53,41.29a3.43,3.43,0,0,1,2.14.83,5,5,0,0,1,.75.9,4.53,4.53,0,0,1,.5,1A5.55,5.55,0,0,0,55,42.24,3.86,3.86,0,0,0,53,41.29Z"/><path d="M48.07,46.22a3.43,3.43,0,0,1,2.14.83A5,5,0,0,1,51,48a4.53,4.53,0,0,1,.5,1,5.55,5.55,0,0,0-1.35-1.82A3.86,3.86,0,0,0,48.07,46.22Z"/><path d="M50.53,44.37a3.41,3.41,0,0,1,2.14.83,4.27,4.27,0,0,1,.75.9,4.05,4.05,0,0,1,.5,1,5.35,5.35,0,0,0-1.35-1.83A3.83,3.83,0,0,0,50.53,44.37Z"/><circle class="cls-2" cx="35.25" cy="35.25" r="35"/></g></g></svg>