<svg xmlns="http://www.w3.org/2000/svg" viewBox="0 0 30.25 30.25"><defs><style>.cls-1,.cls-2,.cls-3,.cls-4{fill:none;stroke:#000;stroke-miterlimit:10;}.cls-1{stroke-width:0.2px;}.cls-2{stroke-width:0.25px;}.cls-3{stroke-width:0.1px;}.cls-4{stroke-width:0.1px;}</style></defs><title>vegan-30px</title><g id="Layer_2" data-name="Layer 2"><g id="vegan"><path class="cls-1" d="M4.4,17.25S1.94,9.61,6.31,9.06s4.91,3.28,5.19,4.1a7.58,7.58,0,0,1-2.19,6.28"/><path d="M3.85,12.89c.74,1.56,1.43,3.16,2.05,4.77C5.16,16.1,4.48,14.5,3.85,12.89Z"/><path d="M4.4,11.25q1.72,3.64,3.28,7.37C6.53,16.19,5.43,13.73,4.4,11.25Z"/><path d="M5.74,9.76q2,4.47,3.83,9Q7.56,14.3,5.74,9.76Z"/><path d="M7.13,9.61Q9,13.39,10.68,17.25,8.82,13.47,7.13,9.61Z"/><path d="M11.5,14.8q-1.59-2.55-3-5.19Q10.08,12.16,11.5,14.8Z"/><path d="M7.52,9.58c-1.14,1.05-2.33,2.05-3.55,3Q5.68,11,7.52,9.58Z"/><path d="M9.86,10.43q-2.8,2.25-5.73,4.37C6,13.29,7.9,11.84,9.86,10.43Z"/><path d="M10.68,12.34q-3,2.13-6,4.09C6.64,15,8.64,13.65,10.68,12.34Z"/><path d="M11,14a10.66,10.66,0,0,0-1.18.85l-1.14.91c-.78.59-1.54,1.21-2.32,1.79.73-.65,1.5-1.25,2.25-1.87l1.17-.88A7.54,7.54,0,0,1,11,14Z"/><path d="M11,15.62Q9.51,17,8,18.35,9.39,16.91,11,15.62Z"/><path class="cls-1" d="M4,17.12l16.52,7s-3.28,4.91-10.38,3A8.57,8.57,0,0,1,4,17.12Z"/><path class="cls-2" d="M20.1,23.67s5.18-3.82,5.73-4.92a1.67,1.67,0,0,0-.36-2.09,1,1,0,0,0-1.21,0c-1.33,1-5,4.06-5.26,6.75"/><path class="cls-2" d="M17.37,22.58s4.91-7.37,5.18-7.65a1.51,1.51,0,0,1,2.07,1.55"/><path class="cls-3" d="M23.65,14.93A10.24,10.24,0,0,1,25.28,13c.55-.54.55,0,.55,0l-1.91,1.91,1.64-1.36s.54,0,.27.27l-.24.21c-.47.41-1.39,1.15-1.4,1.16h0a14.57,14.57,0,0,0,1.91-.82c.28-.28,0-.55-.27-.55"/><path class="cls-3" d="M25.28,16.57a10.32,10.32,0,0,1,1.64-1.91c.55-.55.55,0,.55,0l-1.91,1.91,1.64-1.36s.54,0,.27.27l-.24.21c-.47.41-1.39,1.14-1.4,1.15h0A12.27,12.27,0,0,0,27.74,16c.27-.27,0-.54-.27-.54"/><path class="cls-1" d="M11.36,15.75s2.46-1.09,3.28.55.54,2.45,0,3.27a3.47,3.47,0,0,1-1.91,1.1"/><path class="cls-1" d="M14.77,16.71s4.92-1.42,4.37,2.45-4.37,2.46-4.37,2.46"/><path class="cls-1" d="M14,14.25s.22-3.66,3.33-2.76a2.47,2.47,0,0,1,1.77,2c.16,1.21-.22,2.76-3.18,2.92C15.87,16.43,14,16.71,14,14.25Z"/><path class="cls-4" d="M6,9.07a6.78,6.78,0,0,0-2.49-.68H2.35A3.82,3.82,0,0,1,6,8.16a3.91,3.91,0,0,0-2.26-1.8S4.39,5.9,6,7A3.28,3.28,0,0,1,7.1,3.87S7.32,6.36,6.64,7a2.85,2.85,0,0,1,2.26-.9A13.32,13.32,0,0,0,6.64,7.94s.46-.45,2.26-.45c0,0-2.26.9-2.26,1.58"/><path d="M4.81,21.76a11.82,11.82,0,0,0,1.88,2.45,10.12,10.12,0,0,0,2.48,1.84,11,11,0,0,0,1.41.62,9.93,9.93,0,0,0,1.51.33,10.66,10.66,0,0,0,3.09-.06,9.49,9.49,0,0,1-3.1.13,8.94,8.94,0,0,1-1.52-.32,10.72,10.72,0,0,1-1.44-.61A10.7,10.7,0,0,1,4.81,21.76Z"/><path d="M18.32,13.43a2.07,2.07,0,0,0-1.88,0l0,0,0,0a1.8,1.8,0,0,0-1.61-.58,1.22,1.22,0,0,1,.9,0,2.45,2.45,0,0,1,.78.49h-.07A2,2,0,0,1,18.32,13.43Z"/><path d="M15.32,14.8a1.87,1.87,0,0,1,1.08-1.41l0,0a1.71,1.71,0,0,1,.09-.78,1,1,0,0,1,.5-.59,1.37,1.37,0,0,0-.5,1.35v0l0,0a1.43,1.43,0,0,0-.69.52A2.91,2.91,0,0,0,15.32,14.8Z"/><path d="M17.5,14.8A4.45,4.45,0,0,0,17,14a1.56,1.56,0,0,0-.69-.63,1.35,1.35,0,0,1,.78.57A2.81,2.81,0,0,1,17.5,14.8Z"/><path d="M14.36,17.72a2,2,0,0,0-1.76,0l0,0,0,0a1.66,1.66,0,0,0-1.5-.55,1.11,1.11,0,0,1,.84,0,2.32,2.32,0,0,1,.73.46h-.06A1.84,1.84,0,0,1,14.36,17.72Z"/><path d="M11.54,19a1.74,1.74,0,0,1,1-1.32l0,.05a1.86,1.86,0,0,1,.09-.74,1,1,0,0,1,.47-.55,1.32,1.32,0,0,0-.47,1.27v0l0,0a1.34,1.34,0,0,0-.64.49A2.94,2.94,0,0,0,11.54,19Z"/><path d="M13.59,19a5.05,5.05,0,0,0-.46-.77,1.55,1.55,0,0,0-.65-.59,1.21,1.21,0,0,1,.73.54A2.65,2.65,0,0,1,13.59,19Z"/><path d="M18.21,19.36a1.35,1.35,0,0,0-1.21,0l0,0,0,0a1.18,1.18,0,0,0-1-.38,1.09,1.09,0,0,1,1.09.31H17A1.26,1.26,0,0,1,18.21,19.36Z"/><path d="M16.28,20.24a1.16,1.16,0,0,1,.68-.93l0,.06a.87.87,0,0,1,.4-.89.93.93,0,0,0-.31.87v0h0A1.31,1.31,0,0,0,16.28,20.24Z"/><path d="M17.68,20.24a5.16,5.16,0,0,0-.33-.52,1.13,1.13,0,0,0-.43-.41.8.8,0,0,1,.51.35A1.76,1.76,0,0,1,17.68,20.24Z"/><path d="M5.72,20.78s.06,0,.14,0,.14,0,.14,0-.06-.05-.14-.05S5.72,20.75,5.72,20.78Z"/><path d="M5.78,19.92s.06.06.14.06.14,0,.14-.06-.06-.05-.14-.05S5.78,19.9,5.78,19.92Z"/><path d="M4.51,19.75s.06-.05.06-.09,0-.09-.06-.09,0,0,0,.09S4.48,19.75,4.51,19.75Z"/><path d="M7.67,20.78s.06,0,.14,0,.14,0,.14,0-.06-.05-.14-.05S7.67,20.75,7.67,20.78Z"/><path d="M9.45,23.26s.05,0,.05-.09,0-.09-.05-.09-.06,0-.06.09S9.42,23.26,9.45,23.26Z"/><path d="M7.61,20s.06,0,.06-.09,0-.09-.06-.09-.05,0-.05.09S7.58,20,7.61,20Z"/><path d="M6.44,21.69s.06,0,.06-.09,0-.09-.06-.09-.05,0-.05.09S6.41,21.69,6.44,21.69Z"/><path d="M7.88,22.93c0-.05,0-.09,0-.09s-.06,0-.06.09,0,.09.06.09S7.88,23,7.88,22.93Z"/><path d="M5.14,18.72s.05,0,.05-.09,0-.09-.05-.09-.06,0-.06.09S5.11,18.72,5.14,18.72Z"/><path d="M12.08,21.75s-.06,0-.06.09,0,.09.06.09.05,0,.05-.09S12.11,21.75,12.08,21.75Z"/><path d="M9.25,21.37s.06,0,.06,0,0,0-.06,0-.06,0-.06,0S9.22,21.37,9.25,21.37Z"/><path d="M14.46,22.53s-.06,0-.06.09,0,.09.06.09,0,0,0-.09S14.49,22.53,14.46,22.53Z"/><path d="M12.29,24.58s0,0,0,.09,0,.09,0,.09.06,0,.06-.09S12.32,24.58,12.29,24.58Z"/><path d="M16.74,24s0-.09-.06-.09-.06,0-.06.09,0,.09.06.09S16.74,24,16.74,24Z"/><path d="M14.71,24.88s.06,0,.06,0,0,0-.06,0-.06,0-.06,0S14.68,24.88,14.71,24.88Z"/><path d="M9.25,20.34s.06,0,.06,0,0,0-.06,0-.06,0-.06,0S9.22,20.34,9.25,20.34Z"/><path d="M10.11,22.79s-.06,0-.06,0,0,0,.06,0a0,0,0,1,0,0-.08Z"/><path d="M11.2,23.37s-.06,0-.06,0,0,0,.06,0,.06,0,.06,0S11.23,23.37,11.2,23.37Z"/><path d="M14.2,23.58s0,0,0,0a0,0,0,0,0,0,0s.06,0,.06,0S14.23,23.58,14.2,23.58Z"/><path d="M11.51,22.9s.06,0,.06,0,0,0-.06,0-.06,0-.06,0S11.48,22.9,11.51,22.9Z"/><path d="M10.63,25.79a0,0,0,1,0,0,.08s.06,0,.06,0S10.67,25.79,10.63,25.79Z"/><path d="M12.64,22.9s.06,0,.06,0,0,0-.06,0-.06,0-.06,0S12.61,22.9,12.64,22.9Z"/><path d="M11.47,21.26s-.05,0-.05,0a0,0,0,0,0,.05,0s.06,0,.06,0S11.5,21.26,11.47,21.26Z"/><path d="M10.38,21.29s-.06,0-.06,0,0,0,.06,0,.06,0,.06,0S10.41,21.29,10.38,21.29Z"/><path d="M14.18,25.33s0,0,0,.09,0,.09,0,.09.06,0,.06-.09S14.21,25.33,14.18,25.33Z"/><path d="M5.06,21.22s-.08,0-.08,0,0,0,.08,0,.08,0,.08,0S5.11,21.22,5.06,21.22Z"/><path d="M6.42,22.82s-.08,0-.08,0,0,0,.08,0,.09,0,.09,0S6.47,22.82,6.42,22.82Z"/><path d="M7.54,23.92s-.09,0-.09,0,0,0,.09,0,.08,0,.08,0S7.58,23.92,7.54,23.92Z"/><path d="M8.37,22s-.08,0-.08,0,0,0,.08,0,.09,0,.09,0S8.42,22,8.37,22Z"/><path d="M10.83,25c-.05,0-.08,0-.08,0s0,0,.08,0,.09,0,.09,0S10.88,25,10.83,25Z"/><path d="M15.76,25.52s-.08,0-.08,0,0,0,.08,0,.09,0,.09,0S15.81,25.52,15.76,25.52Z"/><path d="M12.76,26.1s-.08,0-.08,0,0,0,.08,0,.09,0,.09,0S12.81,26.1,12.76,26.1Z"/><path d="M8.12,23.85s-.08,0-.08,0,0,0,.08,0,.09,0,.09,0S8.17,23.85,8.12,23.85Z"/><path d="M10,22.14s-.08,0-.08,0,0,0,.08,0,.09,0,.09,0S10.08,22.14,10,22.14Z"/><path d="M13.69,26.61s-.08,0-.08,0,0,0,.08,0,.09,0,.09,0S13.74,26.61,13.69,26.61Z"/><path d="M13.19,24.7s-.09,0-.09,0,0,0,.09,0,.08,0,.08,0S13.23,24.7,13.19,24.7Z"/><path d="M12.22,23.71c-.05,0-.09,0-.09,0s0,0,.09,0,.08,0,.08,0S12.26,23.71,12.22,23.71Z"/><path d="M18.24,25s-.08,0-.08,0,0,0,.08,0,.09,0,.09,0S18.29,25,18.24,25Z"/><path d="M15.8,23.06s-.08,0-.08,0,0,0,.08,0,.09,0,.09,0S15.85,23.06,15.8,23.06Z"/><path d="M16.13,24.36s-.08,0-.08,0,0,0,.08,0,.09,0,.09,0S16.18,24.36,16.13,24.36Z"/><path d="M13.4,22.93s-.08,0-.08,0,0,0,.08,0,.09,0,.09,0S13.45,22.93,13.4,22.93Z"/><path d="M15,23.85s-.08,0-.08,0,0,0,.08,0,.09,0,.09,0S15,23.85,15,23.85Z"/><path d="M9.25,24.36c-.05,0-.08,0-.08,0s0,0,.08,0,.09,0,.09,0S9.3,24.36,9.25,24.36Z"/><path d="M21.83,16a2.1,2.1,0,0,1,.6.14.93.93,0,0,1,.4.48,1.2,1.2,0,0,0-.45-.39C22.22,16.07,22,16.05,21.83,16Z"/><path d="M21.05,17a.76.76,0,0,1,.82.55A1.41,1.41,0,0,0,21.05,17Z"/><path d="M20.51,18.07a.77.77,0,0,1,.82.55A1.49,1.49,0,0,0,20.51,18.07Z"/><path d="M23.78,17a1.48,1.48,0,0,1,1,.36,1.94,1.94,0,0,1,.54.87,2.51,2.51,0,0,0-.6-.8A1.76,1.76,0,0,0,23.78,17Z"/><path d="M23,17.8a1.48,1.48,0,0,1,1,.36,1.91,1.91,0,0,1,.55.87,2.7,2.7,0,0,0-.61-.8A1.76,1.76,0,0,0,23,17.8Z"/><path d="M20.78,20a1.51,1.51,0,0,1,1,.36,1.94,1.94,0,0,1,.54.87,2.53,2.53,0,0,0-.61-.79A1.83,1.83,0,0,0,20.78,20Z"/><path d="M21.87,19.16a1.48,1.48,0,0,1,1,.36,1.94,1.94,0,0,1,.54.87,2.47,2.47,0,0,0-.61-.79A1.78,1.78,0,0,0,21.87,19.16Z"/><circle class="cls-2" cx="15.13" cy="15.13" r="15"/></g></g></svg>